<svg width="65" height="35" viewBox="0 0 65 35" fill="none" xmlns="http://www.w3.org/2000/svg">
<path d="M18.972 15.6603C18.7178 15.214 18.4884 14.7539 18.285 14.2823C18.123 13.7277 18.0458 13.1519 18.056 12.5743V6.40126C18.1326 5.51481 18.01 4.62245 17.6972 3.7895C17.3844 2.95656 16.8892 2.20412 16.248 1.58726C14.6306 0.420336 12.6512 -0.133966 10.663 0.0232628C9.54602 0.0166647 8.43211 0.140843 7.34401 0.393263C6.38842 0.595417 5.45905 0.906099 4.574 1.31926C4.34612 1.41029 4.14121 1.55065 3.97401 1.73026C3.86469 1.93137 3.81704 2.16023 3.83701 2.38826V3.33426C3.83701 3.72526 3.974 3.93426 4.272 3.93426H4.61501L5.439 3.64626C6.18869 3.38301 6.95296 3.16331 7.728 2.98826C8.48069 2.82876 9.24762 2.74601 10.017 2.74126C11.2443 2.62259 12.4746 2.93555 13.496 3.62626C13.8666 4.03927 14.1458 4.52587 14.3153 5.05421C14.4849 5.58255 14.541 6.14074 14.48 6.69226V8.09226C13.633 7.90726 12.832 7.76326 12.031 7.66026C11.2711 7.57188 10.507 7.52381 9.74201 7.51626C7.90048 7.41676 6.07886 7.93828 4.569 8.99726C3.94813 9.44338 3.44609 10.0349 3.10684 10.72C2.76758 11.4052 2.60146 12.163 2.623 12.9273C2.59266 13.6203 2.71885 14.3113 2.99221 14.949C3.26557 15.5866 3.67907 16.1544 4.202 16.6103C5.39575 17.6133 6.92471 18.1277 8.48201 18.0503C9.65418 18.0791 10.8192 17.8593 11.9003 17.4053C12.9813 16.9513 13.9539 16.2734 14.754 15.4163C14.9526 15.8065 15.1743 16.1845 15.418 16.5483C15.6374 16.8693 15.8905 17.166 16.173 17.4333C16.346 17.599 16.5745 17.6942 16.814 17.7003C17.0098 17.704 17.2018 17.6463 17.363 17.5353L18.713 16.7353C18.8098 16.6964 18.8963 16.6356 18.9657 16.5577C19.0351 16.4798 19.0855 16.3869 19.113 16.2863C19.1369 16.1883 19.136 16.0859 19.1105 15.9883C19.085 15.8908 19.0357 15.8011 18.967 15.7273L18.972 15.6603ZM14.554 11.0103C14.5666 11.573 14.4972 12.1345 14.348 12.6773C14.2444 13.1387 14.0326 13.5688 13.73 13.9323C13.1664 14.4979 12.4759 14.9209 11.716 15.1663C10.9738 15.3901 10.2022 15.5011 9.42701 15.4953C8.82498 15.4879 8.23773 15.3078 7.73501 14.9765C7.23229 14.6452 6.83523 14.1766 6.591 13.6263C6.38026 13.0922 6.34872 12.5042 6.50112 11.9507C6.65352 11.3972 6.98161 10.9082 7.43601 10.5573C8.3887 9.99365 9.49106 9.73507 10.595 9.81626C11.2679 9.79884 11.9411 9.83227 12.609 9.91626C13.296 10.0163 13.937 10.1223 14.555 10.2453L14.554 11.0103ZM25.174 16.6103C25.243 16.9004 25.394 17.1646 25.609 17.3713C25.8591 17.5136 26.146 17.578 26.433 17.5563H28.264C28.4117 17.5886 28.5647 17.5883 28.7123 17.5553C28.8598 17.5224 28.9984 17.4576 29.1183 17.3655C29.2383 17.2734 29.3366 17.1562 29.4065 17.0221C29.4764 16.888 29.5162 16.7403 29.523 16.5893L32.799 4.24126L36.118 16.5863C36.1499 16.8791 36.2883 17.1499 36.507 17.3473C36.7665 17.5097 37.0722 17.5821 37.377 17.5533H39.208C39.4894 17.5673 39.7684 17.4955 40.008 17.3473C40.2331 17.1531 40.393 16.8944 40.466 16.6063L45.776 1.81326C45.8531 1.66643 45.8997 1.50555 45.913 1.34026C45.9227 1.23749 45.9227 1.13404 45.913 1.03126C45.9244 0.965618 45.9186 0.898145 45.8961 0.835411C45.8737 0.772677 45.8354 0.716816 45.785 0.673263C45.7308 0.625969 45.6669 0.591155 45.5978 0.571283C45.5287 0.551411 45.456 0.546966 45.385 0.558263H43.399C43.1132 0.549638 42.8297 0.613269 42.575 0.743263C42.3761 0.950655 42.2342 1.2059 42.163 1.48426L38.451 14.3223L35.041 1.58626C34.9992 1.30228 34.862 1.04097 34.652 0.845263C34.3863 0.699816 34.0839 0.635494 33.782 0.660263H32.042C31.7386 0.610143 31.4276 0.682037 31.177 0.860263C31.0608 0.942507 30.9648 1.05021 30.8966 1.17517C30.8283 1.30012 30.7894 1.43902 30.783 1.58126L27.464 14.1783L23.916 1.58726C23.8483 1.30751 23.7059 1.05139 23.504 0.846263C23.2478 0.697872 22.9517 0.633194 22.657 0.661263H20.599C20.256 0.661263 20.099 0.826263 20.099 1.13426C20.1181 1.39621 20.1799 1.65327 20.282 1.89526L25.174 16.6103ZM48.063 16.9603C48.8434 17.3176 49.6665 17.5733 50.512 17.7213C51.588 17.9507 52.6848 18.068 53.785 18.0713C54.8213 18.0752 55.8533 17.937 56.852 17.6603C57.6749 17.449 58.4512 17.0861 59.141 16.5903C59.78 16.1495 60.3123 15.5714 60.699 14.8983C61.0734 14.2184 61.2627 13.4522 61.248 12.6763C61.2576 11.6944 60.9076 10.7429 60.264 10.0013C59.4384 9.12112 58.3846 8.48757 57.22 8.17126L54.199 7.30626C53.3742 7.10051 52.5969 6.73717 51.91 6.23626C51.7089 6.0718 51.547 5.86457 51.4361 5.62965C51.3253 5.39473 51.2682 5.13804 51.269 4.87826C51.2553 4.5271 51.343 4.17942 51.5216 3.87674C51.7001 3.57405 51.962 3.32915 52.276 3.17126C53.1111 2.80061 54.0175 2.61797 54.931 2.63626C56.335 2.61108 57.7296 2.86993 59.031 3.39726C59.2843 3.51381 59.5542 3.59006 59.831 3.62326C60.151 3.62326 60.331 3.41726 60.331 3.00626V2.10126C60.3456 1.87659 60.2716 1.65513 60.125 1.48426C59.9542 1.2704 59.7343 1.10093 59.484 0.990263C59.1956 0.851134 58.8971 0.734131 58.591 0.640263C58.1793 0.578282 57.7736 0.481945 57.378 0.352263L56.005 0.126263H54.564C53.6617 0.111854 52.7613 0.215739 51.886 0.435263C51.0716 0.637843 50.298 0.9788 49.599 1.44326C48.9783 1.84479 48.4544 2.37894 48.065 3.00726C47.6859 3.62603 47.4878 4.33862 47.493 5.06426C47.5091 6.08475 47.8816 7.06747 48.546 7.84226C49.4622 8.81947 50.6498 9.50031 51.956 9.79726L55.046 10.6613C55.8313 10.8161 56.5687 11.1547 57.198 11.6493C57.3873 11.8166 57.5388 12.0225 57.6422 12.253C57.7457 12.4836 57.7988 12.7336 57.798 12.9863C57.8022 13.3661 57.6991 13.7394 57.5006 14.0633C57.3022 14.3872 57.0163 14.6485 56.676 14.8173C55.7065 15.2806 54.636 15.4928 53.563 15.4343C52.7108 15.4398 51.8599 15.3641 51.022 15.2083C50.2391 15.0653 49.4723 14.8449 48.733 14.5503L48.207 14.3443H47.818C47.498 14.3443 47.318 14.5503 47.318 14.9443V15.9933C47.3203 16.18 47.3673 16.3634 47.455 16.5283C47.6556 16.7356 47.9085 16.8849 48.187 16.9603H48.063ZM56.807 25.9303C49.1073 28.8284 40.9549 30.3388 32.728 30.3913C21.7019 30.4039 10.8299 27.8021 1.00401 22.7993C0.226005 22.3883 -0.368995 23.1083 0.272005 23.6433C9.2973 30.8107 20.5178 34.6473 32.042 34.5063C41.1844 34.5659 50.1662 32.1026 57.999 27.3873C59.099 26.6053 58.091 25.4533 56.923 25.9263L56.807 25.9303ZM63.674 22.3303C62.919 21.4863 56.327 20.7463 52.23 23.2763C51.612 23.6873 51.73 24.2223 52.39 24.1403C54.679 23.8933 59.714 23.3583 60.607 24.3873C61.5 25.4163 59.6 29.6753 58.753 31.5873C58.501 32.1433 59.053 32.3873 59.623 31.9373C63.629 29.0983 64.613 23.1933 63.835 22.3293L63.674 22.3303Z" fill="white"/>
</svg>
