<svg width="108" height="44" viewBox="0 0 108 44" fill="none" xmlns="http://www.w3.org/2000/svg">
<g clip-path="url(#clip0_122_5598)">
<g style="mix-blend-mode:luminosity">
<path d="M7.668 42.8552C5.89 42.8552 4.588 41.9872 4.154 40.4752L5.554 39.9432C5.834 40.9792 6.646 41.5672 7.794 41.5672C8.914 41.5672 9.614 41.0352 9.614 40.1812C9.614 37.8012 4.588 38.8372 4.588 35.4492C4.588 33.9092 5.764 32.8172 7.766 32.8172C9.46 32.8172 10.594 33.6292 10.958 34.9172L9.558 35.4492C9.278 34.5252 8.662 34.0912 7.696 34.0912C6.646 34.0912 6.072 34.6092 6.072 35.3232C6.072 37.5772 11.112 36.4992 11.112 40.1392C11.112 41.7632 9.782 42.8552 7.668 42.8552ZM17.6437 35.3232H19.1137V42.7012H17.7277V41.7632C17.2237 42.4072 16.3837 42.8692 15.3617 42.8692C13.4717 42.8692 12.4497 41.6092 12.4497 39.8872V35.3232H13.9197V39.7052C13.9197 40.8112 14.6337 41.5532 15.7677 41.5392C16.8877 41.5392 17.6297 40.7412 17.6437 39.8732V35.3232ZM24.3302 42.8692C22.1462 42.8692 20.5082 41.2312 20.5082 39.0192C20.5082 36.8352 22.1182 35.1692 24.3162 35.1692C26.1642 35.1692 27.3822 36.3172 27.7462 37.5072L26.4162 38.0392C26.1502 37.0872 25.3942 36.4992 24.3582 36.4992C23.0142 36.4992 21.9922 37.5072 21.9922 39.0192C21.9922 40.5312 23.0142 41.5392 24.3582 41.5392C25.4082 41.5392 26.1922 40.9512 26.4582 40.0132L27.7882 40.5452C27.4242 41.7072 26.2062 42.8692 24.3302 42.8692ZM32.3829 42.8692C30.1989 42.8692 28.5609 41.2312 28.5609 39.0192C28.5609 36.8352 30.1709 35.1692 32.3689 35.1692C34.2169 35.1692 35.4349 36.3172 35.7989 37.5072L34.4689 38.0392C34.2029 37.0872 33.4469 36.4992 32.4109 36.4992C31.0669 36.4992 30.0449 37.5072 30.0449 39.0192C30.0449 40.5312 31.0669 41.5392 32.4109 41.5392C33.4609 41.5392 34.2449 40.9512 34.5109 40.0132L35.8409 40.5452C35.4769 41.7072 34.2589 42.8692 32.3829 42.8692ZM38.0277 39.5092C38.2517 40.7692 39.2177 41.5532 40.4637 41.5532C41.5697 41.5532 42.1857 41.1472 42.5217 40.3772L43.7397 41.1472C43.1797 42.1272 42.1857 42.8692 40.4217 42.8692C38.0977 42.8692 36.5577 41.2172 36.5577 39.0192C36.5577 36.8772 38.2237 35.1552 40.3097 35.1552C42.5917 35.1552 44.0057 36.9472 44.0057 38.8512C44.0057 39.1032 43.9917 39.3692 43.9777 39.5092H38.0277ZM38.0417 38.3752H42.5497C42.3537 37.1292 41.4997 36.3592 40.3657 36.3592C39.2177 36.3592 38.2657 37.1012 38.0417 38.3752ZM47.7971 42.8692C46.2291 42.8692 45.0811 42.2252 44.6891 41.0212L46.0331 40.5032C46.2571 41.2312 46.8871 41.6512 47.8391 41.6512C48.6651 41.6512 49.1971 41.3012 49.1971 40.6992C49.1971 39.0892 45.0391 39.8172 45.0391 37.2832C45.0391 35.9672 46.1311 35.1692 47.8111 35.1692C49.1971 35.1692 50.1911 35.7292 50.5131 36.7232L49.1691 37.2412C48.9451 36.6392 48.4691 36.3452 47.7831 36.3452C47.0271 36.3452 46.6071 36.6812 46.6071 37.1992C46.6071 38.7112 50.7651 37.8852 50.7651 40.5872C50.7651 42.0292 49.5891 42.8692 47.7971 42.8692ZM54.5647 42.8692C52.9967 42.8692 51.8487 42.2252 51.4567 41.0212L52.8007 40.5032C53.0247 41.2312 53.6547 41.6512 54.6067 41.6512C55.4327 41.6512 55.9647 41.3012 55.9647 40.6992C55.9647 39.0892 51.8067 39.8172 51.8067 37.2832C51.8067 35.9672 52.8987 35.1692 54.5787 35.1692C55.9647 35.1692 56.9587 35.7292 57.2807 36.7232L55.9367 37.2412C55.7127 36.6392 55.2367 36.3452 54.5507 36.3452C53.7947 36.3452 53.3747 36.6812 53.3747 37.1992C53.3747 38.7112 57.5327 37.8852 57.5327 40.5872C57.5327 42.0292 56.3567 42.8692 54.5647 42.8692ZM65.7538 32.9712C67.7418 32.9712 68.9878 34.1052 68.9878 35.8832C68.9878 37.6472 67.7278 38.7812 65.7538 38.7812H63.4998V42.7012H62.0158V32.9712H65.7538ZM65.6698 37.4792C66.8458 37.4792 67.4758 36.8212 67.4758 35.8832C67.4758 34.9312 66.8458 34.2732 65.6698 34.2732H63.4998V37.4792H65.6698ZM75.8619 35.3232H77.2339V42.7012H75.8619V41.4972C75.3019 42.3512 74.4059 42.8692 73.2579 42.8692C71.1439 42.8692 69.6179 41.2172 69.6179 39.0052C69.6179 36.8212 71.1579 35.2532 73.2579 35.2532C74.4059 35.2532 75.3019 35.7292 75.8619 36.5692V35.3232ZM73.4399 41.5532C74.8399 41.5532 75.8059 40.5032 75.8059 39.0052C75.8059 37.5212 74.8539 36.4712 73.4399 36.4712C72.0959 36.4712 71.0879 37.5632 71.0879 39.0052C71.0879 40.4752 72.0819 41.5532 73.4399 41.5532ZM80.4473 36.2612C80.9373 35.6312 81.7493 35.1552 82.7153 35.1552V36.5412C81.3993 36.5552 80.5313 37.3392 80.5313 38.3752V42.7012H79.0473V35.3232H80.4473V36.2612ZM86.9682 42.7012C85.3022 42.7012 84.4202 41.7072 84.4202 40.1252V36.5972H83.1042V35.3232H83.8182C84.2942 35.3232 84.5042 35.0852 84.5042 34.6092V33.4192H85.9462V35.3232H88.0042V36.5972H85.8902V39.9712C85.8902 40.8952 86.3802 41.3992 87.2622 41.3992H88.0882V42.7012H86.9682ZM93.0005 35.1552C94.8485 35.1552 95.9685 36.3452 95.9685 38.1512V42.7012H94.4845V38.4172C94.4845 37.1992 93.7565 36.4712 92.5805 36.4852C91.4745 36.4852 90.6625 37.2972 90.6485 38.2072V42.7012H89.1645V35.3232H90.5645V36.2612C91.0685 35.6172 91.9085 35.1552 93.0005 35.1552ZM98.7034 39.5092C98.9274 40.7692 99.8934 41.5532 101.139 41.5532C102.245 41.5532 102.861 41.1472 103.197 40.3772L104.415 41.1472C103.855 42.1272 102.861 42.8692 101.097 42.8692C98.7734 42.8692 97.2334 41.2172 97.2334 39.0192C97.2334 36.8772 98.8994 35.1552 100.985 35.1552C103.267 35.1552 104.681 36.9472 104.681 38.8512C104.681 39.1032 104.667 39.3692 104.653 39.5092H98.7034ZM98.7174 38.3752H103.225C103.029 37.1292 102.175 36.3592 101.041 36.3592C99.8934 36.3592 98.9414 37.1012 98.7174 38.3752ZM107.422 36.2612C107.912 35.6312 108.724 35.1552 109.69 35.1552V36.5412C108.374 36.5552 107.506 37.3392 107.506 38.3752V42.7012H106.022V35.3232H107.422V36.2612ZM113.162 42.8692C111.594 42.8692 110.446 42.2252 110.054 41.0212L111.398 40.5032C111.622 41.2312 112.252 41.6512 113.204 41.6512C114.03 41.6512 114.562 41.3012 114.562 40.6992C114.562 39.0892 110.404 39.8172 110.404 37.2832C110.404 35.9672 111.496 35.1692 113.176 35.1692C114.562 35.1692 115.556 35.7292 115.878 36.7232L114.534 37.2412C114.31 36.6392 113.834 36.3452 113.148 36.3452C112.392 36.3452 111.972 36.6812 111.972 37.1992C111.972 38.7112 116.13 37.8852 116.13 40.5872C116.13 42.0292 114.954 42.8692 113.162 42.8692Z" fill="black"/>
<path d="M9.786 12.81V15.435H6.552V18.984H3.822V15.435H0.588V12.81H3.822V9.177H6.552V12.81H9.786ZM19.2385 13.314C20.8975 13.902 22.0525 15.288 22.0525 17.031C22.0525 19.572 19.7635 21.273 16.6345 21.273C13.4845 21.273 11.1955 19.572 11.1955 17.031C11.1955 15.267 12.2875 13.881 13.9045 13.293C12.7075 12.747 11.8045 11.634 11.8045 10.017C11.8045 7.854 13.5055 6.153 16.6345 6.153C19.7215 6.153 21.4435 7.833 21.4435 10.038C21.4435 11.655 20.5405 12.768 19.2385 13.314ZM16.6345 8.673C15.5005 8.673 14.7445 9.387 14.7445 10.437C14.7445 11.466 15.5215 12.222 16.6345 12.222C17.7265 12.222 18.5035 11.466 18.5035 10.437C18.5035 9.387 17.7475 8.673 16.6345 8.673ZM16.6345 18.753C18.0415 18.753 18.9445 17.871 18.9445 16.653C18.9445 15.435 18.0205 14.532 16.6345 14.532C15.2275 14.532 14.3035 15.435 14.3035 16.653C14.3035 17.871 15.2065 18.753 16.6345 18.753ZM30.2172 21.252C26.2482 21.252 23.6862 18.375 23.6862 13.671C23.6862 8.883 26.2482 6.153 30.2172 6.153C34.2072 6.153 36.7692 8.883 36.7692 13.671C36.7692 18.375 34.1652 21.252 30.2172 21.252ZM30.2172 18.312C32.2332 18.312 33.5982 16.674 33.5982 13.713C33.5982 10.731 32.2332 9.114 30.2172 9.114C28.2012 9.114 26.8572 10.731 26.8572 13.713C26.8572 16.695 28.2012 18.312 30.2172 18.312Z" fill="black"/>
<path d="M53.1122 14.8994L56.953 19.3134L53.1122 23.0584" stroke="white"/>
</g>
</g>
<defs>
<clipPath id="clip0_122_5598">
<rect width="107.776" height="43.701" fill="white"/>
</clipPath>
</defs>
</svg>
