<svg width="153" height="35" viewBox="0 0 153 35" fill="none" xmlns="http://www.w3.org/2000/svg">
<path d="M61.9841 21.3747C62.0569 22.4487 61.9046 23.5261 61.5372 24.5379C61.1697 25.5497 60.5951 26.4736 59.8501 27.2507C58.1455 28.7062 55.9384 29.436 53.7021 29.2837H49.3601V13.7617H54.1601C55.2055 13.6983 56.253 13.8423 57.2425 14.1856C58.2319 14.5288 59.1436 15.0645 59.9251 15.7617C60.6371 16.5045 61.1876 17.3867 61.5419 18.3527C61.8963 19.3187 62.0469 20.3476 61.9841 21.3747ZM59.3081 21.4597C59.3081 17.7437 57.5704 15.8857 54.0951 15.8857H51.8951V27.1507H53.6951C57.4371 27.15 59.3084 25.253 59.3091 21.4597H59.3081ZM68.8751 29.4967C68.0891 29.5415 67.3024 29.4224 66.5649 29.1469C65.8274 28.8715 65.1553 28.4457 64.5911 27.8967C64.0562 27.3014 63.6443 26.6061 63.3791 25.851C63.114 25.0959 63.0008 24.2957 63.0461 23.4967C62.9522 21.8642 63.4623 20.2543 64.4791 18.9737C64.9713 18.423 65.5806 17.9894 66.2622 17.7048C66.9438 17.4201 67.6804 17.2916 68.4181 17.3287C69.0952 17.2936 69.7722 17.4012 70.4051 17.6444C71.038 17.8877 71.6128 18.2611 72.0921 18.7407C73.0369 19.8073 73.5217 21.2041 73.4411 22.6267V23.9757H65.6161C65.586 24.9362 65.9155 25.8734 66.5401 26.6037C66.8616 26.9201 67.246 27.1653 67.6685 27.3235C68.0909 27.4816 68.5419 27.5492 68.9921 27.5217C69.6434 27.525 70.2932 27.4579 70.9301 27.3217C71.5927 27.1689 72.2382 26.9502 72.8571 26.6687V28.7047C72.2698 28.9876 71.6488 29.1943 71.0091 29.3197C70.3053 29.4458 69.5911 29.5051 68.8761 29.4967H68.8751ZM68.4181 19.2197C68.0654 19.2041 67.7133 19.2632 67.385 19.3931C67.0567 19.523 66.7596 19.7209 66.5131 19.9737C65.9887 20.5899 65.6878 21.3651 65.6591 22.1737H70.9891C71.0329 21.3794 70.7838 20.5966 70.2891 19.9737C70.0508 19.7197 69.7602 19.5206 69.4373 19.3902C69.1143 19.2599 68.7669 19.2013 68.4191 19.2187L68.4181 19.2197ZM77.6451 29.2847L73.1861 17.5417H75.8191L78.2081 24.3687C78.5539 25.267 78.803 26.1996 78.9511 27.1507H79.0361C79.212 26.2056 79.4604 25.2756 79.7791 24.3687L82.1681 17.5417H84.8221L80.3421 29.2847H77.6451ZM90.4291 29.4967C89.6431 29.5414 88.8565 29.4223 88.119 29.1469C87.3815 28.8714 86.7093 28.4457 86.1451 27.8967C85.6101 27.3014 85.1981 26.6062 84.933 25.851C84.6678 25.0959 84.5547 24.2957 84.6001 23.4967C84.5061 21.8642 85.0162 20.2542 86.0331 18.9737C86.5254 18.423 87.1347 17.9895 87.8162 17.7048C88.4978 17.4202 89.2344 17.2917 89.9721 17.3287C90.6492 17.2936 91.3262 17.4012 91.9591 17.6444C92.592 17.8877 93.1668 18.2611 93.6461 18.7407C94.5909 19.8073 95.0757 21.2041 94.9951 22.6267V23.9757H87.1701C87.1404 24.9368 87.4706 25.8744 88.0961 26.6047C88.4176 26.921 88.8021 27.1663 89.2245 27.3244C89.6469 27.4826 90.0979 27.5501 90.5481 27.5227C91.1994 27.526 91.8492 27.4589 92.4861 27.3227C93.149 27.1699 93.7948 26.9511 94.4141 26.6697V28.7047C93.8268 28.9875 93.2058 29.1942 92.5661 29.3197C91.8617 29.4469 91.1469 29.5072 90.4311 29.4997L90.4291 29.4967ZM89.9721 19.2197C89.6192 19.204 89.267 19.263 88.9385 19.393C88.6101 19.5229 88.3128 19.7208 88.0661 19.9737C87.5419 20.5899 87.241 21.3651 87.2121 22.1737H92.5421C92.5858 21.3794 92.3367 20.5967 91.8421 19.9737C91.6042 19.7201 91.314 19.5212 90.9916 19.3909C90.6693 19.2605 90.3224 19.2018 89.9751 19.2187L89.9721 19.2197ZM99.0191 29.2847H96.5241V12.7637H99.0191V29.2847ZM111.696 23.3917C111.794 25.022 111.266 26.6284 110.22 27.8827C109.692 28.4319 109.051 28.8605 108.342 29.1391C107.633 29.4176 106.872 29.5396 106.111 29.4967C105.092 29.517 104.087 29.2602 103.202 28.7537C102.355 28.2534 101.679 27.5098 101.26 26.6197C100.789 25.6104 100.556 24.5062 100.58 23.3927C100.483 21.774 101.007 20.1791 102.045 18.9337C102.578 18.3856 103.223 17.9589 103.935 17.6828C104.648 17.4067 105.412 17.2876 106.175 17.3337C106.926 17.2973 107.676 17.4252 108.373 17.7084C109.07 17.9917 109.696 18.4234 110.209 18.9737C111.248 20.2037 111.78 21.7835 111.696 23.3917ZM103.15 23.3917C103.15 26.103 104.15 27.4583 106.15 27.4577C108.132 27.4577 109.123 26.1023 109.123 23.3917C109.123 20.709 108.125 19.3677 106.129 19.3677C105.692 19.3309 105.253 19.4073 104.854 19.5894C104.456 19.7716 104.11 20.0534 103.852 20.4077C103.33 21.3118 103.087 22.3499 103.153 23.3917H103.15ZM119.215 29.4917C118.552 29.5242 117.891 29.3956 117.288 29.117C116.685 28.8383 116.159 28.4179 115.754 27.8917H115.606C115.705 28.883 115.754 29.483 115.754 29.6917V34.5047H113.259V17.5417H115.276C115.333 17.7603 115.449 18.2843 115.626 19.1137H115.754C116.128 18.5338 116.649 18.0633 117.264 17.7499C117.878 17.4366 118.565 17.2916 119.254 17.3297C119.911 17.2994 120.565 17.4284 121.162 17.7058C121.758 17.9832 122.278 18.4007 122.678 18.9227C123.57 20.2362 124.001 21.8081 123.904 23.3927C123.998 24.9867 123.559 26.5668 122.656 27.8837C122.254 28.4103 121.731 28.832 121.131 29.113C120.531 29.394 119.872 29.526 119.21 29.4977L119.215 29.4917ZM118.61 19.3627C118.205 19.3274 117.798 19.3878 117.421 19.5389C117.044 19.69 116.707 19.9277 116.439 20.2327C115.915 21.061 115.674 22.0375 115.754 23.0147V23.3867C115.67 24.4664 115.906 25.547 116.434 26.4927C116.694 26.8256 117.033 27.0881 117.421 27.256C117.809 27.4238 118.232 27.4918 118.653 27.4537C119.051 27.4689 119.445 27.3787 119.796 27.1922C120.148 27.0057 120.443 26.7295 120.653 26.3917C121.173 25.4716 121.416 24.4207 121.353 23.3657C121.42 22.3224 121.176 21.2827 120.653 20.3777C120.429 20.0481 120.123 19.7819 119.766 19.605C119.408 19.4281 119.011 19.3463 118.613 19.3677L118.61 19.3627ZM130.63 29.4917C129.844 29.5364 129.057 29.4173 128.32 29.1419C127.582 28.8664 126.91 28.4407 126.346 27.8917C125.811 27.2964 125.399 26.6011 125.134 25.846C124.869 25.0909 124.756 24.2907 124.801 23.4917C124.707 21.8592 125.217 20.2492 126.234 18.9687C126.726 18.4179 127.336 17.9843 128.017 17.6996C128.699 17.415 129.435 17.2865 130.173 17.3237C130.85 17.2887 131.527 17.3963 132.16 17.6395C132.793 17.8828 133.368 18.2562 133.847 18.7357C134.792 19.8023 135.277 21.1991 135.196 22.6217V23.9707H127.372C127.341 24.9332 127.67 25.8728 128.296 26.6047C128.618 26.921 129.002 27.1663 129.424 27.3244C129.847 27.4826 130.298 27.5501 130.748 27.5227C131.399 27.526 132.049 27.4589 132.686 27.3227C133.349 27.1699 133.995 26.9511 134.614 26.6697V28.7047C134.027 28.9875 133.406 29.1942 132.766 29.3197C132.062 29.4458 131.348 29.505 130.633 29.4967L130.63 29.4917ZM130.174 19.2147C129.821 19.1989 129.469 19.2579 129.141 19.3879C128.812 19.5178 128.515 19.7158 128.268 19.9687C127.744 20.585 127.443 21.3601 127.414 22.1687H132.745C132.789 21.3744 132.54 20.5917 132.045 19.9687C131.807 19.7159 131.516 19.5179 131.194 19.3884C130.871 19.2589 130.524 19.201 130.177 19.2187L130.174 19.2147ZM142.682 17.3247C143.099 17.317 143.516 17.3525 143.925 17.4307L143.68 19.7557C143.32 19.6704 142.95 19.6278 142.58 19.6287C142.13 19.6111 141.681 19.6891 141.263 19.8575C140.844 20.0259 140.467 20.2809 140.154 20.6057C139.52 21.2947 139.186 22.2073 139.225 23.1427V29.2787H136.731V17.5417H138.685L139.014 19.6117H139.141C139.504 18.9392 140.027 18.3666 140.664 17.9447C141.261 17.5428 141.965 17.3283 142.685 17.3287L142.682 17.3247ZM152.682 25.9357C152.709 26.4448 152.608 26.9526 152.389 27.4132C152.171 27.8737 151.841 28.2725 151.429 28.5737C150.36 29.2506 149.103 29.5719 147.84 29.4917C146.546 29.546 145.256 29.3024 144.071 28.7797V26.6297C145.271 27.2234 146.586 27.5493 147.925 27.5847C149.458 27.5847 150.225 27.121 150.225 26.1937C150.234 25.9231 150.144 25.6585 149.97 25.4507C149.728 25.1987 149.444 24.9906 149.131 24.8357C148.605 24.562 148.062 24.3209 147.506 24.1137C146.49 23.7902 145.554 23.2543 144.761 22.5417C144.269 21.9794 144.012 21.2492 144.044 20.5027C144.027 20.0407 144.131 19.5822 144.344 19.1719C144.557 18.7617 144.872 18.4136 145.26 18.1617C146.254 17.5572 147.407 17.2668 148.568 17.3287C149.919 17.3223 151.256 17.6085 152.486 18.1677L151.679 20.0467C150.672 19.5839 149.586 19.3175 148.479 19.2617C147.162 19.2617 146.503 19.6367 146.504 20.3867C146.507 20.5728 146.555 20.7555 146.645 20.9186C146.734 21.0817 146.863 21.2201 147.019 21.3217C147.727 21.7527 148.48 22.1052 149.265 22.3727C150.013 22.6333 150.728 22.9796 151.396 23.4047C151.803 23.6808 152.138 24.0505 152.373 24.4827C152.594 24.9357 152.703 25.4357 152.688 25.9397L152.682 25.9357Z" fill="white"/>
<path d="M81.092 8.01341C80.7306 8.17185 80.3396 8.25161 79.945 8.24741C79.5889 8.22781 79.2438 8.11734 78.9425 7.92653C78.6413 7.73572 78.3939 7.47093 78.224 7.15741C77.9693 6.76795 77.8156 6.32115 77.777 5.85741C77.713 5.13041 77.892 4.29141 78.712 4.08541C78.9725 4.021 79.2477 4.05666 79.4833 4.18534C79.7188 4.31402 79.8975 4.52636 79.984 4.78041C80.075 5.02641 80.019 5.14741 79.798 5.23641L77.819 6.06741L78.492 6.10941C79.298 5.77441 80.192 5.46341 80.999 5.12941C81.165 5.05941 81.18 5.04641 81.115 4.87041C81.0023 4.61777 80.8409 4.38982 80.6401 4.19957C80.4393 4.00931 80.203 3.86048 79.9446 3.76158C79.6863 3.66268 79.411 3.61565 79.1344 3.62317C78.8579 3.63069 78.5856 3.69261 78.333 3.80541C77.8793 4.00671 77.4939 4.33573 77.224 4.75231C76.9541 5.16889 76.8113 5.65503 76.813 6.15141C76.7792 6.82212 77.013 7.47883 77.463 7.97736C77.9129 8.47588 78.5423 8.77549 79.213 8.81041C79.7296 8.84564 80.2451 8.72772 80.695 8.47141C80.781 8.39041 81.263 8.00041 81.272 7.91741C81.266 7.89741 81.194 7.95741 81.092 8.01341ZM75.878 7.79341C75.892 5.81741 75.842 3.83141 75.924 1.85441C75.9244 1.69592 75.9567 1.53915 76.019 1.39341C76.1108 1.25619 76.2352 1.14385 76.381 1.06641H74.904C74.61 1.19641 74.347 1.39941 74.063 1.54241C74.363 1.53341 74.632 1.53741 74.928 1.53041C74.801 3.51541 74.88 5.49741 74.87 7.55741C74.9029 7.74287 74.8885 7.93364 74.8282 8.11209C74.7679 8.29053 74.6636 8.45091 74.525 8.57841C75.157 8.57841 75.759 8.59041 76.393 8.59041C76.5368 8.48648 76.6725 8.37182 76.799 8.24741C76.099 8.26841 75.889 8.33241 75.878 7.79341Z" fill="white"/>
<path d="M74.352 3.79471C73.4614 3.78671 72.5724 3.78371 71.685 3.78571C71.2655 3.76835 70.8498 3.87231 70.4878 4.08514C70.1258 4.29797 69.8329 4.61065 69.644 4.98571C69.4668 5.37321 69.4222 5.8083 69.517 6.22371C69.6321 6.64105 69.8956 7.00205 70.2579 7.239C70.6202 7.47595 71.0565 7.57256 71.485 7.51071C71.585 7.49771 71.611 7.46871 71.559 7.55371C71.4717 7.74213 71.456 7.95593 71.5149 8.15508C71.5738 8.35424 71.7032 8.52511 71.879 8.63571C71.6088 8.61671 71.3374 8.6214 71.068 8.64971C70.013 8.77471 68.842 9.31971 68.903 10.4577C68.948 11.3427 69.843 11.9947 71.257 11.9947C71.7638 12.0461 72.2752 11.9656 72.7417 11.761C73.2081 11.5563 73.6137 11.2345 73.919 10.8267C74.1379 10.4558 74.2062 10.0152 74.1098 9.59544C74.0134 9.17572 73.7598 8.80896 73.401 8.57071C73.077 8.32771 72.512 7.99371 72.547 7.53271C72.5647 7.43493 72.6052 7.34272 72.6654 7.26364C72.7255 7.18455 72.8035 7.12083 72.893 7.07771C73.251 6.88658 73.5306 6.57585 73.683 6.19971C73.813 5.83101 73.8063 5.42786 73.664 5.06371C73.534 4.71716 73.3022 4.41805 72.999 4.20571H73.717L74.351 3.79671L74.352 3.79471ZM72.559 9.15971C72.8039 9.2777 73.0081 9.46601 73.1454 9.70061C73.2827 9.9352 73.347 10.2054 73.33 10.4767C73.269 11.0137 72.752 11.4327 71.876 11.4847C70.934 11.5437 69.676 11.1727 69.906 9.93771C70.032 9.27971 70.906 8.93771 71.623 8.91871C71.823 8.91171 72.023 8.92571 72.223 8.93271C72.334 9.00871 72.448 9.08271 72.559 9.15871V9.15971ZM72.085 7.17371C71.452 7.34871 70.754 6.85471 70.531 5.97371C70.28 5.00571 70.531 4.39171 71.131 4.20671C71.836 3.98371 72.59 4.62371 72.762 5.66571C72.874 6.35171 72.7 6.99971 72.085 7.17371ZM68.975 6.10071C68.9704 5.7622 68.8968 5.42818 68.7587 5.11909C68.6206 4.80999 68.4209 4.5323 68.1718 4.30299C67.9228 4.07368 67.6296 3.89757 67.3101 3.78542C66.9907 3.67327 66.6518 3.62743 66.314 3.65071C65.6231 3.63674 64.9546 3.89675 64.4547 4.37397C63.9548 4.85119 63.6641 5.50684 63.646 6.19771C63.673 6.89478 63.9723 7.55347 64.4795 8.03236C64.9868 8.51125 65.6616 8.77215 66.359 8.75906C67.0565 8.74597 67.721 8.45993 68.21 7.96234C68.6989 7.46475 68.9732 6.7953 68.974 6.09771L68.975 6.10071ZM66.82 8.33571C65.928 8.53571 64.982 7.80071 64.75 6.54971C64.489 5.17371 64.917 4.26771 65.756 4.04371C66.756 3.78271 67.767 4.78571 67.912 6.26471C68.012 7.23571 67.685 8.13571 66.82 8.33571ZM60.498 3.64571C59.8028 3.62765 59.1287 3.88534 58.6229 4.36253C58.117 4.83973 57.8205 5.49766 57.798 6.19271C57.8527 6.87808 58.1668 7.51677 58.6763 7.97849C59.1857 8.44022 59.8521 8.6902 60.5396 8.67744C61.227 8.66468 61.8837 8.39015 62.3756 7.90985C62.8676 7.42954 63.1578 6.77964 63.187 6.09271C63.1802 5.7526 63.1042 5.41744 62.9636 5.10764C62.8231 4.79784 62.621 4.51987 62.3697 4.29067C62.1183 4.06147 61.8229 3.88582 61.5015 3.77443C61.18 3.66303 60.8393 3.61822 60.5 3.64271L60.498 3.64571ZM61.009 8.33571C60.109 8.53571 59.153 7.80071 58.916 6.54971C58.653 5.17371 59.086 4.26771 59.937 4.04371C60.943 3.78271 61.967 4.78571 62.116 6.26471C62.215 7.23571 61.884 8.13571 61.009 8.33571ZM54.295 6.73571L55.925 6.68771V8.09571C55.925 8.29571 55.925 8.32671 55.596 8.43471C55.1166 8.55298 54.6206 8.58949 54.129 8.54271C53.3434 8.45645 52.6081 8.11348 52.0372 7.56695C51.4662 7.02042 51.0915 6.30083 50.971 5.51971C50.8226 4.82877 50.9034 4.10828 51.2011 3.46736C51.4988 2.82643 51.9973 2.29998 52.621 1.96771C52.9378 1.80288 53.2839 1.70221 53.6397 1.6715C53.9954 1.64078 54.3537 1.68061 54.694 1.78871C55.1872 1.9506 55.6334 2.23036 55.994 2.60371L55.727 3.08171L56.227 2.94771L56.997 2.15671C56.2742 1.63572 55.4253 1.31734 54.5381 1.23453C53.6509 1.15172 52.7578 1.30749 51.951 1.68571C51.3027 2.00036 50.7497 2.48183 50.3489 3.08073C49.948 3.67962 49.7137 4.37438 49.67 5.09371C49.6587 5.75171 49.8121 6.40209 50.1164 6.98562C50.4206 7.56916 50.866 8.06731 51.412 8.43471C52.901 9.43471 55.479 9.21871 57.034 8.43471L57.028 8.29071H57.034V6.69071L57.394 6.26471H55.135L54.295 6.73571Z" fill="white"/>
<path d="M34.986 22.471C35.1821 22.8475 35.2898 23.2638 35.3009 23.6881C35.312 24.1125 35.2262 24.5338 35.05 24.92L39.87 16.891C40.0822 16.4891 40.1931 16.0415 40.1931 15.587C40.1931 15.1325 40.0822 14.6849 39.87 14.283L32.08 1.3C31.8206 0.921234 31.4777 0.607063 31.0777 0.381682C30.6778 0.1563 30.2314 0.0257209 29.773 0L22.983 0C22.15 0 21.815 0.589 22.25 1.3L27.1 9.375C27.129 9.416 27.171 9.453 27.2 9.49L34.993 22.466L34.986 22.471Z" fill="white"/>
<path d="M22.983 31.1701H29.773C30.2316 31.1451 30.6782 31.0148 31.0783 30.7894C31.4784 30.564 31.8212 30.2494 32.08 29.8701L35.051 24.9251C35.2267 24.5387 35.3122 24.1175 35.3011 23.6932C35.29 23.2689 35.1826 22.8528 34.987 22.4761L30.042 14.2881C30.2536 14.6902 30.3642 15.1377 30.3642 15.5921C30.3642 16.0465 30.2536 16.494 30.042 16.8961L25.219 24.9201C25.194 24.9741 25.182 25.0371 25.155 25.0861L22.195 30.0131C21.895 30.6611 22.204 31.1751 22.983 31.1751V31.1701Z" fill="white"/>
<path d="M34.985 22.4712L30.04 14.2832C30.2516 14.6853 30.3622 15.1328 30.3622 15.5872C30.3622 16.0416 30.2516 16.4891 30.04 16.8912L28.298 19.7912L35.048 24.9192C35.2242 24.533 35.31 24.1117 35.2989 23.6873C35.2878 23.2629 35.1801 22.8467 34.984 22.4702L34.985 22.4712Z" fill="white"/>
<path d="M5.74004 8.69902C5.54462 8.32207 5.43749 7.90562 5.42675 7.48117C5.41601 7.05671 5.50194 6.63537 5.67804 6.24902L0.855038 14.279C0.643261 14.6812 0.532593 15.129 0.532593 15.5835C0.532593 16.0381 0.643261 16.4858 0.855038 16.888L8.65504 29.864C8.91338 30.2423 9.25508 30.5562 9.65383 30.7815C10.0526 31.0069 10.4977 31.1378 10.955 31.164H17.745C18.583 31.164 18.916 30.576 18.485 29.864L13.633 21.791C13.606 21.749 13.562 21.713 13.533 21.675L5.74004 8.69902Z" fill="white"/>
<path d="M17.7431 0H10.9531C10.4956 0.0255775 10.0502 0.156146 9.65135 0.381587C9.2525 0.607027 8.91091 0.921284 8.65307 1.3L5.67907 6.25C5.50297 6.63635 5.41703 7.05769 5.42778 7.48214C5.43852 7.9066 5.54565 8.32305 5.74106 8.7L10.6891 16.89C10.4773 16.4878 10.3666 16.0401 10.3666 15.5855C10.3666 15.1309 10.4773 14.6832 10.6891 14.281L15.5101 6.257C15.5285 6.19985 15.5509 6.14405 15.5771 6.09L18.5361 1.163C18.8371 0.514 18.5221 0 17.7431 0Z" fill="white"/>
<path d="M5.74005 8.698L10.688 16.888C10.4763 16.4858 10.3656 16.0381 10.3656 15.5835C10.3656 15.1289 10.4763 14.6812 10.688 14.279L12.43 11.379L5.67905 6.25C5.50311 6.63601 5.41718 7.05694 5.42775 7.48102C5.43832 7.9051 5.5451 8.32124 5.74005 8.698Z" fill="white"/>
</svg>
