<svg width="141" height="49" viewBox="0 0 141 49" fill="none" xmlns="http://www.w3.org/2000/svg">
<g style="mix-blend-mode:luminosity">
<mask id="mask0_122_5502" style="mask-type:luminance" maskUnits="userSpaceOnUse" x="0" y="0" width="141" height="49">
<path d="M140.114 0.211914H0.0339355V48.1031H140.114V0.211914Z" fill="white"/>
</mask>
<g mask="url(#mask0_122_5502)">
<path d="M0.0339751 10.0088V1.61612C0.0199961 1.43542 0.045716 1.25385 0.109331 1.08414C0.172946 0.914434 0.272917 0.760696 0.402232 0.633709C0.666655 0.409176 1.00598 0.292532 1.35257 0.30703C1.70688 0.291561 2.05435 0.407948 2.32786 0.633709C2.45882 0.760186 2.56017 0.914069 2.62466 1.08433C2.68915 1.25458 2.71517 1.437 2.70087 1.6185V10.0088C2.71496 10.1908 2.68885 10.3737 2.62439 10.5445C2.55993 10.7153 2.4587 10.8698 2.32786 10.9972C2.05505 11.2233 1.70778 11.3398 1.35376 11.3238C1.00661 11.3379 0.667017 11.2199 0.40342 10.9936C0.273769 10.8663 0.173523 10.7122 0.109704 10.5421C0.0458854 10.372 0.0200387 10.19 0.0339751 10.0088Z" fill="black"/>
<path d="M9.76412 1.6021L14.7249 7.88147V1.5439C14.712 1.376 14.7334 1.20722 14.7879 1.0479C14.8425 0.888581 14.929 0.742063 15.0421 0.617314C15.1571 0.511433 15.2921 0.429577 15.4392 0.376541C15.5863 0.323506 15.7424 0.300357 15.8986 0.308453C16.058 0.299735 16.2176 0.322525 16.3682 0.375521C16.5189 0.428517 16.6576 0.51068 16.7764 0.617314C16.8909 0.741358 16.9785 0.887654 17.0339 1.04707C17.0893 1.20649 17.1112 1.37562 17.0984 1.5439V9.92114C17.1262 10.1106 17.1095 10.3039 17.0496 10.4859C16.9898 10.6678 16.8885 10.8333 16.7536 10.9692C16.6188 11.1052 16.4542 11.208 16.2728 11.2694C16.0914 11.3307 15.8982 11.3491 15.7085 11.3229C15.4969 11.3258 15.286 11.2978 15.0825 11.2397C14.8943 11.1829 14.7178 11.0932 14.561 10.9748C14.3952 10.8502 14.2438 10.7076 14.1096 10.5496C13.9702 10.3912 13.8312 10.2252 13.6926 10.0518L8.85061 3.84253V10.0886C8.86333 10.2577 8.8397 10.4276 8.7813 10.5868C8.7229 10.746 8.6311 10.8909 8.51205 11.0117C8.27401 11.2244 7.96268 11.3364 7.64368 11.3241C7.47914 11.338 7.31357 11.3153 7.15881 11.2577C7.00405 11.2002 6.86394 11.1091 6.7485 10.991C6.63305 10.873 6.54513 10.7309 6.49103 10.5749C6.43693 10.4189 6.41799 10.2528 6.43556 10.0886V1.87057C6.42313 1.59019 6.4705 1.31038 6.57455 1.04972C6.69735 0.819424 6.88873 0.633022 7.12218 0.51634C7.37728 0.377864 7.66348 0.306723 7.95373 0.309641C8.15575 0.304863 8.35698 0.336656 8.54769 0.403487C8.70617 0.462573 8.85325 0.548575 8.98247 0.657703C9.12379 0.782482 9.25196 0.921401 9.36498 1.07229C9.49486 1.24177 9.62949 1.41837 9.76888 1.6021" fill="black"/>
<path d="M28.4539 2.27211H25.5875V10.0102C25.6023 10.1919 25.5776 10.3747 25.5151 10.5459C25.4525 10.7172 25.3536 10.8728 25.2251 11.0022C24.9644 11.2245 24.6291 11.34 24.2867 11.3253C23.9401 11.34 23.6007 11.2233 23.3364 10.9986C23.2072 10.8703 23.1074 10.7155 23.0441 10.5448C22.9807 10.3742 22.9552 10.1918 22.9693 10.0102V2.27211H20.1028C19.7527 2.2998 19.4028 2.21668 19.1026 2.03452C18.9991 1.96278 18.9151 1.86655 18.8579 1.75441C18.8006 1.64227 18.7721 1.51772 18.7747 1.39186C18.7711 1.26274 18.8005 1.13484 18.8601 1.02028C18.9198 0.905724 19.0078 0.808318 19.1157 0.737309C19.4126 0.559916 19.7565 0.477052 20.1016 0.499724H28.4527C28.8081 0.473467 29.1627 0.559929 29.466 0.746812C29.5702 0.818937 29.6549 0.915654 29.7128 1.02838C29.7706 1.14111 29.7997 1.26637 29.7975 1.39304C29.7996 1.51973 29.77 1.64493 29.7112 1.7572C29.6525 1.86947 29.5666 1.96523 29.4613 2.03571C29.1576 2.21683 28.8054 2.2998 28.4527 2.2733" fill="black"/>
<path d="M38.7307 9.93707L38.1059 8.59471H32.7923L32.1686 9.96082C32.012 10.3477 31.8021 10.7108 31.5449 11.0395C31.4309 11.1424 31.2968 11.2205 31.1509 11.2687C31.0051 11.317 30.8509 11.3344 30.698 11.3198C30.3783 11.3242 30.0668 11.219 29.8153 11.0216C29.7023 10.9475 29.6086 10.8475 29.5419 10.73C29.4752 10.6125 29.4374 10.4807 29.4316 10.3457C29.4335 10.1914 29.4637 10.0388 29.5207 9.89549C29.5801 9.7371 29.6783 9.52169 29.8153 9.24926L33.1582 2.33197L33.5015 1.61922C33.6159 1.37176 33.7594 1.13886 33.9291 0.92547C34.0909 0.733687 34.2939 0.580989 34.5231 0.478811C34.8117 0.356605 35.1233 0.298251 35.4366 0.307749C35.753 0.297701 36.0678 0.356049 36.3596 0.478811C36.5874 0.5801 36.7901 0.73014 36.9536 0.918343C37.1036 1.0951 37.2324 1.28887 37.3373 1.49567C37.441 1.70158 37.5733 1.97639 37.734 2.32009L41.1481 9.19342C41.3587 9.54201 41.4954 9.93019 41.5496 10.3338C41.5429 10.4686 41.5053 10.6 41.4396 10.7179C41.3738 10.8357 41.2818 10.9368 41.1707 11.0133C40.9124 11.2212 40.5886 11.3306 40.2572 11.3222C40.0748 11.3268 39.8933 11.2961 39.7226 11.2319C39.582 11.1766 39.4545 11.0924 39.3484 10.9848C39.2194 10.8415 39.11 10.6817 39.0229 10.5096C38.9073 10.2942 38.8079 10.1042 38.7248 9.93944M33.4884 6.97913H37.3931L35.4223 2.58381L33.4884 6.97913Z" fill="black"/>
<path d="M50.864 1.61647V7.19971C50.8686 7.61275 50.844 8.02559 50.7904 8.43515C50.7345 8.79492 50.6214 9.14343 50.4554 9.46746C50.1431 10.0725 49.6352 10.554 49.0144 10.8336C48.2491 11.181 47.4145 11.3488 46.5744 11.3242C45.8376 11.3453 45.1033 11.2293 44.4088 10.9821C43.8417 10.7633 43.3539 10.3782 43.0095 9.87729C42.8144 9.58803 42.6616 9.27243 42.5557 8.94002C42.444 8.61489 42.3851 8.27402 42.3811 7.93028C42.3723 7.78315 42.3985 7.63603 42.4575 7.50098C42.5166 7.36594 42.6068 7.24681 42.7208 7.15338C42.972 6.96635 43.2799 6.87155 43.5927 6.88491C43.8735 6.86417 44.1514 6.9527 44.3684 7.132C44.5698 7.34715 44.7083 7.6134 44.7688 7.90177C44.8449 8.20667 44.9442 8.50531 45.0658 8.79509C45.1741 9.02919 45.3462 9.22804 45.5623 9.36886C45.8626 9.5456 46.2089 9.62836 46.5566 9.60645C47.701 9.60645 48.2732 8.90636 48.2732 7.5062V1.61647C48.2594 1.43797 48.2829 1.25856 48.3422 1.08964C48.4016 0.92072 48.4954 0.765978 48.6177 0.63524C48.875 0.40731 49.2117 0.28994 49.5549 0.308561C49.9019 0.291047 50.2423 0.408061 50.5053 0.63524C50.6306 0.764333 50.7272 0.918526 50.7886 1.08766C50.8501 1.25679 50.8749 1.43702 50.8616 1.61647" fill="black"/>
<path d="M62.6744 2.15469H57.0104V4.76813H62.2254C62.5283 4.74592 62.8301 4.82398 63.0843 4.99027C63.175 5.05781 63.2481 5.14616 63.2975 5.24787C63.3469 5.34959 63.3712 5.46169 63.3682 5.57473C63.3712 5.68876 63.3474 5.80189 63.2987 5.90505C63.25 6.0082 63.1778 6.0985 63.0879 6.16869C62.8345 6.34114 62.5298 6.42201 62.2242 6.39796H57.0092V9.42717H62.8681C63.184 9.40494 63.4983 9.48853 63.7614 9.66475C63.858 9.7379 63.9357 9.83312 63.988 9.94245C64.0403 10.0518 64.0656 10.172 64.0619 10.2932C64.0645 10.4121 64.0386 10.5299 63.9863 10.6368C63.934 10.7436 63.8569 10.8364 63.7614 10.9073C63.4983 11.0835 63.184 11.1671 62.8681 11.1449H56.0363C55.6183 11.1822 55.2004 11.0716 54.8555 10.8325C54.7263 10.7002 54.6275 10.5413 54.5659 10.3669C54.5044 10.1925 54.4816 10.0068 54.4992 9.82274V1.81257C54.4889 1.55003 54.5444 1.28908 54.6607 1.05349C54.769 0.856153 54.9443 0.704047 55.1549 0.624645C55.4364 0.526509 55.7336 0.481006 56.0316 0.490409H62.6685C62.9834 0.466635 63.2973 0.547207 63.5618 0.719679C63.6542 0.788354 63.7289 0.878051 63.7797 0.981341C63.8306 1.08463 63.856 1.19854 63.8541 1.31364C63.8575 1.43083 63.8328 1.54715 63.782 1.65279C63.7311 1.75843 63.6556 1.8503 63.5618 1.92067C63.2973 2.09314 62.9834 2.17371 62.6685 2.14994" fill="black"/>
<path d="M74.8898 2.15466H69.2258V4.7681H74.4408C74.7437 4.74598 75.0454 4.82404 75.2996 4.99024C75.3903 5.05778 75.4635 5.14613 75.5129 5.24785C75.5623 5.34956 75.5865 5.46166 75.5836 5.5747C75.5866 5.68862 75.5629 5.80166 75.5144 5.90479C75.466 6.00793 75.394 6.09829 75.3044 6.16866C75.0509 6.34094 74.7463 6.4218 74.4408 6.39793H69.2258V9.42714H75.0846C75.4005 9.40491 75.7148 9.4885 75.9779 9.66472C76.0746 9.73787 76.1523 9.83309 76.2046 9.94242C76.2569 10.0517 76.2822 10.172 76.2785 10.2931C76.2811 10.4121 76.2551 10.5299 76.2029 10.6367C76.1506 10.7436 76.0734 10.8364 75.9779 10.9073C75.7148 11.0835 75.4005 11.1671 75.0846 11.1449H68.2529C67.8349 11.1822 67.417 11.0716 67.0721 10.8325C66.9429 10.7002 66.844 10.5413 66.7825 10.3669C66.7209 10.1925 66.6982 10.0068 66.7157 9.82272V1.81254C66.705 1.5501 66.7602 1.28916 66.8761 1.05346C66.9872 0.854805 67.1659 0.702633 67.3797 0.624618C67.6613 0.526508 67.9585 0.481006 68.2564 0.490383H74.8934C75.2082 0.466697 75.5221 0.547262 75.7867 0.719652C75.879 0.788394 75.9536 0.878104 76.0044 0.981379C76.0553 1.08465 76.0808 1.19853 76.0789 1.31361C76.0823 1.43079 76.0575 1.54707 76.0067 1.65269C75.9558 1.75832 75.8804 1.8502 75.7867 1.92064C75.5221 2.09303 75.2082 2.1736 74.8934 2.14991" fill="black"/>
<path d="M125.423 2.61192C125.424 3.08478 125.285 3.5473 125.023 3.94095C124.761 4.3346 124.388 4.64169 123.951 4.82335C123.515 5.00502 123.034 5.0531 122.57 4.96151C122.106 4.86992 121.68 4.64278 121.345 4.30883C121.01 3.97487 120.782 3.54912 120.689 3.08543C120.597 2.62175 120.643 2.14097 120.824 1.70394C121.005 1.26691 121.311 0.893259 121.704 0.630278C122.097 0.367296 122.559 0.226798 123.032 0.226562C123.665 0.226874 124.272 0.478098 124.72 0.925201C125.168 1.3723 125.421 1.97883 125.423 2.61192Z" fill="black"/>
<path d="M107.553 2.63828C107.554 3.1111 107.415 3.57357 107.153 3.9672C106.891 4.36082 106.518 4.66791 106.081 4.84961C105.645 5.03131 105.164 5.07945 104.7 4.98796C104.237 4.89647 103.81 4.66945 103.475 4.33561C103.141 4.00178 102.912 3.57613 102.819 3.11252C102.727 2.64892 102.773 2.16818 102.954 1.73113C103.134 1.29407 103.44 0.920346 103.833 0.657222C104.226 0.394098 104.688 0.253401 105.161 0.25293C105.794 0.252927 106.401 0.504012 106.85 0.951149C107.298 1.39829 107.551 2.00499 107.553 2.63828Z" fill="black"/>
<path d="M101.948 2.64471C101.95 3.11753 101.811 3.58014 101.549 3.97402C101.288 4.3679 100.915 4.67536 100.479 4.85749C100.043 5.03963 99.5621 5.08825 99.0981 4.99722C98.6342 4.90619 98.2076 4.67959 97.8724 4.34609C97.5373 4.01259 97.3086 3.58717 97.2153 3.12366C97.1219 2.66014 97.1681 2.17936 97.3481 1.74213C97.528 1.3049 97.8337 0.930863 98.2263 0.667348C98.6188 0.403833 99.0807 0.262675 99.5535 0.261733C99.8674 0.260639 100.178 0.321444 100.469 0.440666C100.759 0.559888 101.023 0.735188 101.245 0.95653C101.468 1.17787 101.644 1.44091 101.765 1.73059C101.886 2.02027 101.948 2.3309 101.948 2.64471Z" fill="black"/>
<path d="M60.8034 45.6471C60.8043 46.1199 60.6651 46.5823 60.4032 46.9759C60.1413 47.3695 59.7685 47.6766 59.3321 47.8583C58.8956 48.04 58.4151 48.0882 57.9512 47.9968C57.4874 47.9055 57.0611 47.6785 56.7262 47.3448C56.3913 47.0111 56.1629 46.5856 56.0699 46.122C55.9769 45.6585 56.0235 45.1778 56.2037 44.7408C56.3839 44.3037 56.6897 43.9299 57.0824 43.6666C57.475 43.4033 57.937 43.2624 58.4097 43.2617C59.0432 43.2614 59.651 43.5124 60.0997 43.9595C60.5485 44.4067 60.8015 45.0136 60.8034 45.6471Z" fill="black"/>
<path d="M21.1494 45.7065C21.1492 46.1789 21.0089 46.6406 20.7463 47.0333C20.4837 47.4259 20.1106 47.732 19.6741 47.9126C19.2377 48.0933 18.7574 48.1405 18.2941 48.0483C17.8309 47.9561 17.4053 47.7286 17.0713 47.3946C16.7373 47.0605 16.5098 46.635 16.4175 46.1717C16.3253 45.7084 16.3725 45.2282 16.5532 44.7917C16.7339 44.3552 17.0399 43.9821 17.4325 43.7195C17.8252 43.4569 18.2869 43.3166 18.7593 43.3164C19.0733 43.3159 19.3843 43.3775 19.6745 43.4974C19.9647 43.6173 20.2284 43.7934 20.4504 44.0154C20.6725 44.2374 20.8485 44.5011 20.9684 44.7913C21.0884 45.0815 21.1499 45.3925 21.1494 45.7065Z" fill="black"/>
<path d="M15.5351 45.7098C15.5358 46.1825 15.3963 46.6447 15.1343 47.0381C14.8724 47.4316 14.4996 47.7385 14.0632 47.92C13.6268 48.1016 13.1464 48.1498 12.6826 48.0583C12.2189 47.9669 11.7927 47.74 11.4579 47.4063C11.1231 47.0727 10.8947 46.6473 10.8017 46.1839C10.7086 45.7205 10.7551 45.2399 10.9351 44.8028C11.1152 44.3658 11.4208 43.992 11.8133 43.7286C12.2058 43.4653 12.6676 43.3242 13.1402 43.3233C13.4543 43.3222 13.7656 43.3831 14.0561 43.5025C14.3466 43.622 14.6107 43.7976 14.8332 44.0193C15.0556 44.241 15.2322 44.5045 15.3526 44.7946C15.4731 45.0847 15.5351 45.3957 15.5351 45.7098Z" fill="black"/>
<path d="M138.559 42.3914C138.562 42.4606 138.544 42.529 138.507 42.5874C138.32 42.7756 138.098 42.925 137.853 43.027C137.609 43.1289 137.346 43.1814 137.081 43.1814C136.816 43.1814 136.554 43.1289 136.309 43.027C136.064 42.925 135.842 42.7756 135.656 42.5874H135.646C135.257 42.0457 135.024 41.7357 134.331 41.7381C132.863 41.7381 132.549 43.3632 132.556 44.677C132.556 45.1403 132.556 45.2959 132.556 45.2959L138.894 45.2888C139.223 45.3168 139.529 45.4672 139.752 45.7103C139.976 45.9534 140.1 46.2714 140.1 46.6014C140.1 46.9315 139.976 47.2495 139.752 47.4926C139.529 47.7357 139.223 47.8861 138.894 47.9141L128.617 47.9295H128.609C128.435 47.9348 128.262 47.9051 128.099 47.8421C127.937 47.7791 127.789 47.6842 127.664 47.5629C127.539 47.4417 127.44 47.2966 127.372 47.1362C127.304 46.9758 127.269 46.8035 127.269 46.6293C127.269 46.4552 127.304 46.2829 127.372 46.1225C127.44 45.9621 127.539 45.817 127.664 45.6958C127.789 45.5745 127.937 45.4796 128.099 45.4166C128.262 45.3536 128.435 45.3239 128.609 45.3292C128.612 45.3285 128.616 45.3285 128.62 45.3292C129.293 45.3292 129.648 45.3292 129.856 45.322C129.856 45.322 129.856 45.1545 129.856 44.7637C129.856 43.457 130.157 39.2803 134.252 39.2743C134.252 39.2743 138.04 39.0902 138.557 42.389" fill="black"/>
<path d="M126.02 9.14099H126.005C125.933 8.56108 125.651 8.02756 125.213 7.641C124.775 7.25443 124.21 7.04151 123.626 7.04239C123.042 7.04326 122.478 7.25787 122.041 7.64575C121.604 8.03364 121.324 8.568 121.253 9.14811H121.227L121.252 26.7912C121.258 30.6757 119.253 32.9803 114.849 32.9874H113.999H113.456C109.515 32.9933 107.041 31.1936 107.041 28.0325C107.041 27.8888 107.012 9.16712 107.012 9.16712H107.002C106.934 8.58381 106.654 8.04576 106.215 7.65524C105.777 7.26472 105.21 7.04895 104.623 7.04895C104.036 7.04895 103.469 7.26472 103.03 7.65524C102.592 8.04576 102.312 8.58381 102.244 9.16712H102.22L102.246 27.8971C102.246 31.0618 100.09 33.0052 96.5349 33.0135H95.9944L91.8213 33.0206H90.1083C85.7046 33.0206 83.3846 30.728 83.3763 26.8434L83.4179 2.5587C83.4196 2.54171 83.4196 2.5246 83.4179 2.50762C83.4179 2.49098 83.4179 2.47435 83.4179 2.45891V2.40189H83.4095C83.3406 1.8202 83.0606 1.28402 82.6227 0.894963C82.1849 0.505908 81.6194 0.291016 81.0337 0.291016C80.4479 0.291016 79.8825 0.505908 79.4446 0.894963C79.0067 1.28402 78.7268 1.8202 78.6578 2.40189H78.627C78.627 2.47554 78.6626 26.9919 78.6626 27.0644C78.6697 33.0313 82.5043 36.8054 88.7208 37.2805V37.3376H89.8944H91.8284H96.0003H96.5397H97.6219V37.2817C98.9937 37.2715 100.348 36.9746 101.599 36.4102C102.849 35.8458 103.967 35.0263 104.882 34.0042C106.84 36.0094 109.504 37.1698 112.306 37.2378V37.3031H114.855C121.81 37.29 126.051 33.402 126.042 27.0014C126.042 26.9325 126.019 10.7958 126.017 9.26809C126.017 9.26215 126.017 9.2574 126.017 9.25027C126.016 9.242 126.016 9.2336 126.017 9.22533C126.017 9.17662 126.017 9.14217 126.017 9.14217" fill="black"/>
<path d="M133.867 37.3293C134.475 37.349 135.066 37.1286 135.513 36.7158C135.96 36.303 136.226 35.731 136.254 35.1233L136.219 2.32593H136.206C136.131 1.74768 135.849 1.21639 135.411 0.831694C134.973 0.446997 134.409 0.235312 133.826 0.236332C133.243 0.237352 132.681 0.451008 132.244 0.837236C131.807 1.22346 131.526 1.75574 131.454 2.33425H131.43L131.477 35.1293H131.49C131.518 35.7369 131.784 36.309 132.232 36.7213C132.679 37.1337 133.271 37.353 133.879 37.3317" fill="black"/>
<path d="M75.4647 30.9031H75.4754C75.4683 27.1766 75.4291 24.3386 75.4291 24.2888V24.2151C75.4148 13.4501 68.7387 12.9298 65.1393 13.0094H65.1001H65.0621L54.625 13.0249C54.3148 13.004 54.0036 13.0472 53.7108 13.1517C53.4179 13.2562 53.1497 13.4198 52.9228 13.6323C52.6959 13.8448 52.5151 14.1018 52.3916 14.3871C52.2682 14.6725 52.2047 14.9802 52.2052 15.2911C52.2057 15.602 52.2701 15.9095 52.3945 16.1944C52.5188 16.4794 52.7004 16.7358 52.928 16.9476C53.1556 17.1594 53.4243 17.3221 53.7175 17.4257C54.0106 17.5293 54.322 17.5715 54.6321 17.5497L65.0858 17.5342C65.0921 17.5326 65.0986 17.5326 65.1048 17.5342H65.1215H65.2676C67.8418 17.5663 70.6275 18.2933 70.6358 25.226V25.3721L70.5824 30.915C70.5475 31.4966 70.293 32.0432 69.8705 32.4443C69.448 32.8454 68.8889 33.0712 68.3063 33.0758L54.2258 33.0984H51.9842H48.1959H46.496H44.0762C44.0762 28.9312 44.0667 23.2458 44.0655 23.1971C44.0572 17.2313 40.2214 13.4561 34.0038 12.9809C33.4499 12.9009 32.8874 12.9009 32.3336 12.9809C26.1195 13.4763 22.2932 17.2574 22.3039 23.2196C22.3039 23.266 22.3122 28.949 22.3158 33.1162L7.50119 33.1376C6.8921 33.1523 6.3013 32.9288 5.85448 32.5146C5.40766 32.1004 5.1401 31.5282 5.10871 30.9198V30.9423L5.09565 25.2842C5.08733 18.2351 7.96448 17.5889 10.5684 17.5722C10.5827 17.5722 10.5957 17.5722 10.6088 17.5722C10.9195 17.5932 11.2312 17.55 11.5245 17.4454C11.8178 17.3408 12.0864 17.177 12.3138 16.9642C12.5411 16.7514 12.7222 16.4941 12.8459 16.2084C12.9696 15.9226 13.0333 15.6145 13.0329 15.3031C13.0324 14.9917 12.968 14.6837 12.8436 14.3983C12.7191 14.1128 12.5373 13.856 12.3094 13.6438C12.0815 13.4316 11.8124 13.2685 11.5189 13.1647C11.2253 13.0609 10.9135 13.0185 10.6029 13.0403H10.5625C6.96069 12.9726 0.290492 13.5072 0.305935 24.2733V24.3434C0.305935 24.4004 0.31425 31.5327 0.321378 35.2604C0.331788 35.5637 0.40201 35.862 0.52801 36.1381C0.654011 36.4142 0.833309 36.6628 1.05561 36.8694C1.27791 37.076 1.53884 37.2367 1.82341 37.3422C2.10798 37.4477 2.41058 37.496 2.71386 37.4842L23.221 37.4521L27.1162 37.4616L27.0176 23.4548C27.0105 19.7533 29.1262 17.4938 33.1437 17.2883C37.2064 17.4523 39.3483 19.7152 39.3518 23.4346L39.2936 37.4367H43.2649H44.081H48.2137L54.2413 37.426V37.4011L73.1186 37.3737C73.7184 37.394 74.3025 37.1792 74.7463 36.7752C75.1901 36.3711 75.4585 35.8097 75.4944 35.2105L75.4647 30.9031Z" fill="black"/>
</g>
</g>
</svg>
