<svg width="133" height="22" viewBox="0 0 133 22" fill="none" xmlns="http://www.w3.org/2000/svg">
<path fill-rule="evenodd" clip-rule="evenodd" d="M0.578003 21.3664L5.171 0.689453H13.371L13.745 12.2404L19.265 0.689453H27.484L22.872 21.3664H16.918L19.382 10.2495L13.844 21.3664H9.566L9.349 10.2495L6.59 21.3664H0.578003ZM28.194 4.05945H33.73L34.479 0.689453H28.923L28.194 4.05945ZM29.889 21.3865L24.311 21.3664L27.721 6.05045H33.299L29.889 21.3865ZM51.02 6.05045H56.007L55.573 7.94245C56.2386 7.1252 57.13 6.52182 58.136 6.20745C58.9742 5.9283 59.8525 5.78845 60.736 5.79345L59.455 10.7804C59.14 10.7804 55.277 10.0305 54.074 15.9245L52.832 21.3845H47.57L51.02 6.05045Z" fill="white"/>
<path fill-rule="evenodd" clip-rule="evenodd" d="M48.098 15.7093C48.098 15.8273 46.344 21.9773 38.6371 21.8203C28.308 21.6033 30.9891 5.04631 42.7171 5.63731C49.3791 5.97231 49.045 11.5113 48.9851 11.7483H43.234C43.3131 11.5313 43.5101 9.24831 41.6761 9.28431C38.2661 9.38431 35.8411 17.8383 39.6061 17.9183C41.3411 17.9773 42.1491 15.9673 42.3061 15.7113H48.1061L48.098 15.7093ZM97.554 21.8793C86.338 21.4063 89.709 4.88731 101.22 5.43931C112.047 5.97131 108.971 22.3323 97.5591 21.8793H97.554ZM100.845 9.04631C97.12 8.29731 94.345 17.2463 97.89 17.9753C101.836 18.8043 104.478 9.77631 100.85 9.04631H100.845Z" fill="white"/>
<path fill-rule="evenodd" clip-rule="evenodd" d="M118.571 3.78366C117.032 3.78366 116.738 4.37466 116.482 5.53766L116.382 6.04966H119.635L120.444 2.34366H125.528L124.739 6.04966H127.36L126.592 9.57766H123.969L122.53 16.2987C122.412 16.6612 122.391 17.0487 122.471 17.4217C122.688 18.0327 124.871 17.7777 124.871 17.7777L124.024 21.2867C124.024 21.2867 119.569 21.7987 118.07 20.7537C117.4 20.3007 116.67 19.3537 117.125 17.3247L118.839 9.59766L115.784 9.57766L113.213 21.3667H107.732L110.295 9.57966H107.476L108.265 6.05166H111.005C111.497 4.08066 111.931 2.73966 113.153 1.71566C114.829 0.355659 119.186 0.887656 119.186 0.887656L118.571 3.78366ZM69.371 16.1227L79.778 16.1027C79.778 16.1027 78.891 18.4087 82.164 18.4297C84.431 18.4297 85.317 15.8477 82.264 15.3157C80.864 15.0587 75.444 14.1517 76.056 9.97266C76.569 6.54366 80.136 5.34066 84.039 5.39966C92.022 5.49966 90.525 10.1897 90.622 10.5047H85.3C85.3 10.5047 85.872 8.53366 83.467 8.53366C81.279 8.53366 80.746 10.5047 83.267 11.0337C86.343 11.7047 89.867 11.8617 90.067 15.8237C90.126 16.9237 89.477 22.0917 81.433 21.9347C74.061 21.7767 73.549 18.3077 73.746 16.6917C72.8823 18.3476 71.5564 19.7171 69.9293 20.634C68.3022 21.5509 66.4439 21.9756 64.58 21.8567C53.364 21.5017 56.774 4.88466 68.266 5.45666C73.49 5.71266 75.481 9.67466 74.849 13.5777C74.749 14.2677 74.692 14.3667 74.494 14.4257L69.37 16.1187L69.371 16.1227ZM67.852 9.02266C64.165 8.29366 61.407 17.2027 64.934 17.9517C68.839 18.7647 71.461 9.75666 67.853 9.02666L67.852 9.02266ZM130.436 6.02266C130.961 6.02266 131.465 6.23137 131.837 6.60288C132.208 6.97439 132.417 7.47827 132.417 8.00366C132.417 8.52906 132.208 9.03292 131.837 9.40443C131.465 9.77594 130.961 9.98466 130.436 9.98466C130.166 10.0018 129.895 9.96334 129.64 9.8717C129.385 9.78007 129.152 9.63718 128.955 9.45187C128.757 9.26655 128.6 9.04274 128.493 8.79425C128.385 8.54576 128.33 8.27787 128.33 8.00712C128.33 7.73638 128.385 7.46852 128.493 7.22008C128.601 6.97165 128.758 6.74792 128.955 6.56271C129.153 6.37749 129.386 6.23471 129.641 6.1432C129.896 6.05169 130.167 6.01339 130.437 6.03065L130.436 6.02266ZM130.436 6.37765C130.22 6.37229 130.006 6.41014 129.805 6.48897C129.604 6.56779 129.421 6.686 129.267 6.83664C129.112 6.98728 128.99 7.16729 128.906 7.36608C128.822 7.56487 128.779 7.77842 128.779 7.99415C128.779 8.20989 128.822 8.42344 128.906 8.62223C128.99 8.82102 129.112 9.00104 129.267 9.15168C129.421 9.30232 129.604 9.42053 129.805 9.49935C130.006 9.57818 130.22 9.61602 130.436 9.61066C130.658 9.62731 130.881 9.598 131.091 9.52455C131.301 9.4511 131.493 9.33509 131.657 9.18378C131.82 9.03248 131.95 8.84913 132.039 8.64522C132.128 8.4413 132.174 8.2212 132.174 7.99869C132.174 7.77619 132.128 7.55607 132.039 7.3521C131.95 7.14812 131.82 6.9647 131.657 6.81329C131.494 6.66189 131.302 6.54576 131.092 6.47217C130.882 6.39859 130.659 6.36914 130.437 6.38566L130.436 6.37765ZM130.791 8.22966L131.185 9.01866H130.713L130.398 8.22966H130.121L130.004 9.07766H129.589L129.924 6.96866H130.89C131.034 7.00447 131.161 7.0885 131.251 7.20677C131.34 7.32504 131.387 7.4704 131.382 7.61866C131.384 7.69778 131.371 7.77659 131.342 7.85042C131.314 7.92426 131.271 7.99164 131.216 8.04858C131.161 8.10553 131.095 8.15088 131.022 8.18198C130.949 8.21308 130.87 8.2293 130.791 8.22966ZM130.691 7.24466H130.299L130.199 7.93466H130.593C130.644 7.94408 130.696 7.94266 130.746 7.9305C130.797 7.91835 130.844 7.89572 130.885 7.86411C130.926 7.8325 130.96 7.79261 130.984 7.74705C131.009 7.70148 131.023 7.65125 131.027 7.59965C131.028 7.55474 131.021 7.51 131.005 7.46808C130.989 7.42616 130.964 7.38792 130.933 7.35564C130.902 7.32335 130.864 7.29768 130.823 7.28017C130.781 7.26265 130.737 7.25364 130.692 7.25366L130.691 7.24466Z" fill="white"/>
</svg>
