<svg width="88" height="50" viewBox="0 0 88 50" fill="none" xmlns="http://www.w3.org/2000/svg">
<g style="mix-blend-mode:luminosity">
<path d="M63.3703 14.9636C67.143 14.9636 70.2013 11.9053 70.2013 8.13267C70.2013 4.36006 67.143 1.30176 63.3703 1.30176C59.5977 1.30176 56.5394 4.36006 56.5394 8.13267C56.5394 11.9053 59.5977 14.9636 63.3703 14.9636Z" fill="#101010"/>
<path d="M63.3695 15.7075C61.3613 15.7052 59.4361 14.9064 58.0161 13.4864C56.5961 12.0664 55.7972 10.1411 55.7949 8.13286C55.7968 6.12438 56.5954 4.19871 58.0155 2.77835C59.4355 1.35799 61.3611 0.558969 63.3695 0.556641C65.3782 0.558757 67.3041 1.35765 68.7244 2.77801C70.1448 4.19837 70.9436 6.12417 70.9458 8.13286C70.9434 10.1413 70.1444 12.0669 68.7241 13.4869C67.3037 14.907 65.378 15.7056 63.3695 15.7075ZM63.3695 2.04565C61.756 2.04777 60.2093 2.68973 59.0684 3.83072C57.9276 4.97171 57.2858 6.51859 57.2839 8.13208C57.2858 9.7455 57.9276 11.2923 59.0685 12.4331C60.2093 13.574 61.7561 14.2158 63.3695 14.2177C64.9831 14.216 66.5301 13.5743 67.6711 12.4334C68.8121 11.2925 69.4541 9.74564 69.456 8.13208C69.4541 6.51845 68.8122 4.97144 67.6712 3.83043C66.5302 2.68942 64.9832 2.04756 63.3695 2.04565Z" fill="#101010"/>
<path d="M82.6212 12.7885C84.9725 12.7885 86.8787 10.8823 86.8787 8.53096C86.8787 6.1796 84.9725 4.27344 82.6212 4.27344C80.2698 4.27344 78.3636 6.1796 78.3636 8.53096C78.3636 10.8823 80.2698 12.7885 82.6212 12.7885Z" fill="#101010"/>
<path d="M82.6227 13.4714C81.3128 13.4697 80.0571 12.9485 79.1309 12.0222C78.2047 11.0959 77.6837 9.84005 77.6823 8.53014C77.6837 7.22023 78.2047 5.96438 79.1309 5.03805C80.0571 4.11173 81.3128 3.59056 82.6227 3.58887C83.9328 3.59035 85.1887 4.11142 86.1151 5.03776C87.0414 5.96411 87.5625 7.22009 87.564 8.53014C87.5625 9.84019 87.0414 11.0961 86.1151 12.0225C85.1887 12.9488 83.9328 13.4699 82.6227 13.4714ZM82.6227 4.95713C81.6754 4.95819 80.7673 5.33497 80.0974 6.00481C79.4276 6.67465 79.0508 7.58285 79.0497 8.53014C79.0508 9.47743 79.4276 10.3856 80.0974 11.0555C80.7673 11.7253 81.6754 12.1021 82.6227 12.1031C83.5702 12.1023 84.4785 11.7256 85.1486 11.0557C85.8186 10.3859 86.1955 9.47757 86.1965 8.53014C86.1955 7.58271 85.8186 6.67438 85.1486 6.00452C84.4785 5.33466 83.5702 4.95797 82.6227 4.95713Z" fill="#101010"/>
<path d="M78.3636 7.70312H70.3948V9.35528H78.3636V7.70312Z" fill="#101010"/>
<path d="M7.26835 31.7401C7.26835 32.1064 7.21878 32.3367 7.02445 32.3367H2.88128C0.750917 32.3367 0.162354 31.3875 0.162354 29.2915C0.162354 27.1955 0.747719 26.2447 2.88128 26.2447H5.6362V31.1436H7.02445C7.21878 31.1428 7.26835 31.3723 7.26835 31.7401ZM2.72375 25.3554H1.39466V23.9424H2.72614L2.72375 25.3554ZM4.30633 31.1428V27.4386H2.88047C1.72333 27.4386 1.49223 27.6449 1.49223 29.2907C1.49223 30.9364 1.72333 31.1428 2.88047 31.1428H4.30633ZM4.80691 25.3554H3.47943V23.9424H4.80691V25.3554Z" fill="#101010"/>
<path d="M11.3691 31.7404C11.3691 32.1066 11.3324 32.337 11.1252 32.337H7.01966C6.81174 32.337 6.77576 32.1066 6.77576 31.7404C6.77576 31.3741 6.81254 31.143 7.01966 31.143H8.4079V26.2441H9.737V31.143H11.1252C11.3324 31.143 11.3691 31.3749 11.3691 31.7404ZM7.37071 33.0687H8.699V34.4697H7.37071V33.0687ZM9.4419 33.0687H10.7702V34.4697H9.4419V33.0687Z" fill="#101010"/>
<path d="M12.5103 26.2439H13.8394V32.3359H11.1204C10.9125 32.3359 10.8757 32.1056 10.8757 31.7393C10.8757 31.3731 10.9125 31.142 11.1204 31.142H12.5087L12.5103 26.2439ZM13.8394 23.9424V25.3554H12.5103V23.9424H13.8394Z" fill="#101010"/>
<path d="M19.1117 31.7408C19.1117 32.107 19.0757 32.3365 18.8717 32.3365H15.8801V23.7119H17.2084V31.1434H18.8654C19.0789 31.1434 19.1117 31.3745 19.1117 31.7408Z" fill="#101010"/>
<path d="M27.6747 31.7406C27.6747 32.1068 27.6371 32.3371 27.4308 32.3371H18.8645C18.6582 32.3371 18.6246 32.1068 18.6246 31.7406C18.6246 31.3743 18.6614 31.1432 18.8645 31.1432H20.3632C20.2805 30.5905 20.2398 30.0323 20.2416 29.4734C20.2468 28.4968 20.3651 27.524 20.5942 26.5746C21.3177 26.3437 22.0741 26.2324 22.8334 26.2451C24.9661 26.2451 26.0377 27.0752 26.0377 29.3527V31.1432H27.4268C27.6371 31.1432 27.6747 31.3751 27.6747 31.7406ZM24.7158 31.1432V29.3527C24.7158 27.8421 24.3264 27.4398 22.839 27.4398C22.472 27.4421 22.1056 27.4704 21.7426 27.5246C21.6363 28.1689 21.5794 28.8204 21.5723 29.4734C21.5787 30.032 21.6193 30.5896 21.6938 31.1432H24.7158Z" fill="#101010"/>
<path d="M35.6244 31.7399C35.6244 32.1061 35.5764 32.3364 35.3845 32.3364H33.6172C32.8695 32.339 32.1299 32.1811 31.4484 31.8734C30.7621 32.1799 30.0186 32.3377 29.2669 32.3364H27.4276C27.2197 32.3364 27.1837 32.1061 27.1837 31.7399C27.1837 31.3736 27.2205 31.1425 27.4276 31.1425H29.2669C29.5459 31.1408 29.8238 31.1078 30.0954 31.0442C29.5777 30.6589 29.1428 30.1735 28.8164 29.6168C28.4901 29.0602 28.2788 28.4437 28.1953 27.8038V27.0729C29.191 26.5285 30.3076 26.2432 31.4424 26.2432C32.5773 26.2432 33.6939 26.5285 34.6896 27.0729V27.8038C34.6059 28.4438 34.3945 29.0605 34.0678 29.6171C33.7411 30.1738 33.3059 30.6591 32.7879 31.0442C33.0595 31.1077 33.3374 31.1407 33.6164 31.1425H35.3837C35.5756 31.1425 35.6244 31.3744 35.6244 31.7399ZM31.446 30.4724C31.9443 30.2025 32.3752 29.8234 32.7063 29.3635C33.0374 28.9036 33.2602 28.3748 33.3581 27.8166C32.1282 27.3127 30.7495 27.3127 29.5196 27.8166C29.5204 28.6939 30.3377 29.7782 31.446 30.4724Z" fill="#101010"/>
<path d="M38.3729 23.7119V32.3373H35.3789C35.171 32.3373 35.135 32.107 35.135 31.7416C35.135 31.3761 35.1718 31.1442 35.3789 31.1442H37.0479V23.7127L38.3729 23.7119Z" fill="#101010"/>
<path d="M40.3809 23.7119H41.7091V32.3373H40.3809V23.7119Z" fill="#101010"/>
<path d="M53.0967 31.7401C53.0967 32.1064 53.0479 32.3367 52.852 32.3367H48.7104C46.5776 32.3367 45.9915 31.3875 45.9915 29.2915C45.9915 27.1955 46.576 26.2447 48.7104 26.2447H51.4645V31.1436H52.8528C53.0479 31.1428 53.0967 31.3723 53.0967 31.7401ZM48.5521 25.3554H47.2246V23.9424H48.5521V25.3554ZM50.1362 31.1428V27.4386H48.7104C47.5541 27.4386 47.3214 27.6449 47.3214 29.2907C47.3214 30.9364 47.5541 31.1428 48.7104 31.1428H50.1362ZM50.6352 25.3554H49.307V23.9424H50.6352V25.3554Z" fill="#101010"/>
<path d="M57.1975 31.7404C57.1975 32.1066 57.1599 32.337 56.9536 32.337H52.848C52.6401 32.337 52.6041 32.1066 52.6041 31.7404C52.6041 31.3741 52.6409 31.143 52.848 31.143H54.2363V26.2441H55.5653V31.143H56.9536C57.1599 31.143 57.1975 31.3749 57.1975 31.7404ZM53.1991 33.0687H54.5274V34.4697H53.1991V33.0687ZM55.2703 33.0687H56.5986V34.4697H55.2703V33.0687Z" fill="#101010"/>
<path d="M65.1512 31.7399C65.1512 32.1061 65.1024 32.3364 64.9113 32.3364H63.144C62.3965 32.3389 61.6572 32.181 60.976 31.8734C60.2896 32.1799 59.5462 32.3377 58.7945 32.3364H56.9552C56.7473 32.3364 56.7113 32.1061 56.7113 31.7399C56.7113 31.3736 56.7481 31.1425 56.9552 31.1425H58.7945C59.0734 31.1408 59.3513 31.1078 59.623 31.0442C59.1053 30.6589 58.6704 30.1735 58.344 29.6168C58.0176 29.0602 57.8064 28.4437 57.7229 27.8038V27.0729C58.7186 26.5285 59.8352 26.2432 60.97 26.2432C62.1048 26.2432 63.2214 26.5285 64.2171 27.0729V27.8038C64.1336 28.4437 63.9224 29.0602 63.596 29.6168C63.2696 30.1735 62.8347 30.6589 62.3171 31.0442C62.5884 31.1078 62.8661 31.1408 63.1448 31.1425H64.9121C65.1016 31.1425 65.1512 31.3744 65.1512 31.7399ZM60.9728 30.4724C61.4711 30.2025 61.9019 29.8234 62.2331 29.3635C62.5642 28.9036 62.787 28.3748 62.8849 27.8166C61.655 27.3127 60.2763 27.3127 59.0464 27.8166C59.0464 28.6939 59.8629 29.7782 60.9712 30.4724H60.9728Z" fill="#101010"/>
<path d="M73.7103 31.7406C73.7103 32.1068 73.6735 32.3371 73.4703 32.3371H64.9009C64.6946 32.3371 64.661 32.1068 64.661 31.7406C64.661 31.3743 64.6978 31.1432 64.9009 31.1432H66.3995C66.3168 30.5905 66.2762 30.0323 66.278 29.4734C66.2831 28.4968 66.4014 27.524 66.6306 26.5746C67.3541 26.3437 68.1104 26.2325 68.8698 26.2451C71.0025 26.2451 72.0741 27.0752 72.0741 29.3527V31.1432H73.4631C73.6711 31.1432 73.7103 31.3751 73.7103 31.7406ZM70.7514 31.1432V29.3527C70.7514 27.8421 70.362 27.4398 68.8746 27.4398C68.5076 27.4421 68.1412 27.4704 67.7782 27.5246C67.6719 28.1689 67.6149 28.8204 67.6079 29.4734C67.6143 30.032 67.6549 30.5896 67.7294 31.1432H70.7514Z" fill="#101010"/>
<path d="M81.2337 31.74C81.2337 32.1063 81.1961 32.3366 80.9898 32.3366H73.46C73.2536 32.3366 73.2161 32.1063 73.2161 31.74C73.2161 31.3738 73.2536 31.1427 73.46 31.1427H78.2725V28.8764C78.2725 27.9263 77.6879 27.4505 76.494 27.4505C75.8089 27.4796 75.1258 27.5448 74.4476 27.6456L74.3012 26.5621C75.0135 26.3711 75.7456 26.2638 76.4828 26.2422C78.358 26.2422 79.6015 27.2018 79.6015 28.8747V31.1411H80.9874C81.1961 31.1427 81.2337 31.3746 81.2337 31.74ZM75.823 33.0931H77.1489V34.4933H75.8198L75.823 33.0931Z" fill="#101010"/>
<path d="M83.9821 23.7119V32.3373H80.9849C80.777 32.3373 80.7402 32.107 80.7402 31.7416C80.7402 31.3761 80.777 31.1442 80.9849 31.1442H82.6539V23.7127L83.9821 23.7119Z" fill="#101010"/>
<path d="M85.9894 23.7119H87.3177V32.3373H85.9894V23.7119Z" fill="#101010"/>
<path d="M0 47.0722C0.0856874 45.8626 0.236241 44.6584 0.451019 43.4648L1.7673 43.6608C1.55727 44.7888 1.41096 45.9277 1.32907 47.0722C1.32907 48.071 2.21751 48.8011 3.58258 48.8011C4.94764 48.8011 5.70254 48.1566 5.70254 47.1442V38.3477H7.03083V47.1442C7.03083 48.8875 5.569 49.9959 3.58258 49.9959C1.53538 49.9959 0 48.778 0 47.0722Z" fill="#101010"/>
<path d="M29.0718 46.3484C29.0718 46.7139 29.035 46.9458 28.8279 46.9458L9.04688 46.973V38.3516H10.3752V45.783L28.8287 45.755C29.0358 45.7526 29.0718 45.9838 29.0718 46.3484Z" fill="#101010"/>
<path d="M37.6348 46.3527C37.6348 46.7181 37.5981 46.9501 37.3909 46.9501H28.8263C28.6184 46.9501 28.5824 46.7181 28.5824 46.3527C28.5824 45.9872 28.6192 45.7553 28.8263 45.7553H30.3241C30.2417 45.2023 30.2011 44.6439 30.2026 44.0848C30.2082 43.108 30.3271 42.1353 30.5568 41.1859C31.2803 40.955 32.0366 40.8437 32.796 40.8565C34.9279 40.8565 35.9995 41.6849 35.9995 43.964V45.7545H37.3886C37.5981 45.7537 37.6348 45.9848 37.6348 46.3527ZM34.676 45.7553V43.9648C34.676 42.4542 34.2866 42.0512 32.8008 42.0512C32.4338 42.0534 32.0674 42.0817 31.7044 42.136C31.5976 42.7802 31.5407 43.4318 31.534 44.0848C31.5402 44.6436 31.5805 45.2015 31.6548 45.7553H34.676Z" fill="#101010"/>
<path d="M43.55 45.7539V46.9486H37.3853C37.1789 46.9486 37.1414 46.7167 37.1414 46.3512C37.1414 45.9858 37.1789 45.7539 37.3853 45.7539H39.0934C38.821 45.2392 38.6787 44.6656 38.6792 44.0833C38.6653 43.6597 38.7378 43.2377 38.8921 42.8429C39.0464 42.4481 39.2793 42.0889 39.5768 41.7869C39.8743 41.485 40.23 41.2467 40.6224 41.0865C41.0148 40.9263 41.4357 40.8475 41.8595 40.855C42.3874 40.8613 42.9104 40.9562 43.4069 41.1357L42.9559 42.2688C42.6148 42.1317 42.2518 42.0572 41.8843 42.0489C41.6245 42.0463 41.367 42.098 41.1283 42.2007C40.8897 42.3035 40.6751 42.4549 40.4984 42.6454C40.3217 42.8359 40.1867 43.0612 40.1022 43.3069C40.0176 43.5526 39.9854 43.8132 40.0074 44.0721C40.0003 44.6917 40.2267 45.2913 40.6416 45.7515L43.55 45.7539Z" fill="#101010"/>
<path d="M51.8668 38.3216V46.9478H45.0422V45.7531H46.8943V40.0025H48.2226V45.7531H50.5369V38.3216H51.8668ZM48.9791 39.39H46.1402V38.5495H46.3801C46.3662 38.4525 46.3582 38.3548 46.3561 38.2568C46.3602 38.0571 46.404 37.8603 46.4849 37.6777C46.5658 37.4951 46.6821 37.3304 46.8273 37.1932C46.9724 37.056 47.1433 36.949 47.3301 36.8784C47.5169 36.8079 47.7159 36.7751 47.9155 36.7822C48.2186 36.7866 48.5159 36.866 48.7808 37.0133L48.3049 37.733C48.1874 37.6621 48.0528 37.6242 47.9155 37.6234C47.8315 37.6208 47.7479 37.6354 47.6697 37.6663C47.5916 37.6972 47.5206 37.7438 47.4612 37.8032C47.4017 37.8627 47.3551 37.9337 47.3242 38.0118C47.2933 38.0899 47.2787 38.1736 47.2813 38.2576C47.283 38.3582 47.3039 38.4576 47.3429 38.5503H48.9751L48.9791 39.39Z" fill="#101010"/>
<path d="M53.9076 38.3213H55.2359V46.9475H53.9076V38.3213Z" fill="#101010"/>
<path d="M65.9173 44.0226V46.947H59.5198V44.0226C59.5198 41.6827 60.5913 40.8542 62.7233 40.8542C64.8553 40.8542 65.9173 41.6827 65.9173 44.0226ZM60.8488 44.0226V45.7531H64.589V44.0226C64.589 42.4512 64.1987 42.049 62.7241 42.049C61.2495 42.049 60.8488 42.4512 60.8488 44.0226ZM62.3347 39.9658H61.0064V38.5527H62.3347V39.9658ZM64.4179 39.9658H63.0896V38.5527H64.4179V39.9658Z" fill="#101010"/>
<path d="M71.6046 44.1212V46.9481H66.8865V45.7534H70.2732V44.1212C70.2732 42.4891 69.8469 42.0492 68.5059 42.0492H67.519V40.8545H68.5059C70.4555 40.8553 71.6046 41.6718 71.6046 44.1212Z" fill="#101010"/>
<path d="M76.605 46.3501C76.605 46.7156 76.5698 46.9475 76.3651 46.9475H73.3799V38.3213H74.7082V45.7528H76.3651C76.5698 45.7528 76.605 45.9839 76.605 46.3501Z" fill="#101010"/>
<path d="M79.0753 46.9481H76.3563C76.15 46.9481 76.1164 46.7162 76.1164 46.3507C76.1164 45.9853 76.1532 45.7534 76.3563 45.7534H77.7454V40.8545H79.0729L79.0753 46.9481ZM74.2156 47.679H75.5447V49.0801H74.2156V47.679ZM77.4431 47.679V49.0801H76.1156V47.679H77.4431Z" fill="#101010"/>
<path d="M84.8115 46.3525C84.8115 46.718 84.7619 46.9499 84.5676 46.9499H83.1666V47.4609C83.2005 47.7746 83.1681 48.0919 83.0717 48.3923C82.9753 48.6928 82.8169 48.9697 82.6068 49.205C82.3966 49.4404 82.1394 49.6291 81.8518 49.7588C81.5642 49.8886 81.2525 49.9565 80.937 49.9583C80.7307 49.9583 80.474 49.9335 80.2549 49.9095L80.4148 48.7148C80.6587 48.7396 80.8299 48.7628 80.9386 48.7628C81.4872 48.7628 81.8407 48.3125 81.8407 47.4593V40.8555H83.1689V45.7543H84.57C84.7619 45.7535 84.8115 45.9846 84.8115 46.3525Z" fill="#101010"/>
<path d="M87.5616 38.3213V46.9475H84.5644C84.358 46.9475 84.3245 46.7164 84.3245 46.3501C84.3245 45.9839 84.3612 45.7528 84.5644 45.7528H86.2333V38.3213H87.5616Z" fill="#101010"/>
</g>
</svg>
