<svg width="139" height="19" viewBox="0 0 139 19" fill="none" xmlns="http://www.w3.org/2000/svg">
<path d="M59.84 12.4126H69L64.156 4.6206L55.267 18.7086H51.222L62.034 1.7896C62.2712 1.44714 62.5886 1.16789 62.9585 0.976164C63.3283 0.78444 63.7394 0.686061 64.156 0.689599C64.5634 0.685209 64.9657 0.780169 65.3281 0.966262C65.6906 1.15235 66.0022 1.42397 66.236 1.7576L77.09 18.7086H73.045L71.136 15.5606H61.863L59.84 12.4126ZM101.861 15.5606V0.860599H98.429V16.9996C98.4286 17.2228 98.4725 17.4438 98.5584 17.6499C98.6442 17.8559 98.7702 18.0428 98.929 18.1996C99.0935 18.3639 99.2889 18.4938 99.504 18.5819C99.7191 18.6699 99.9496 18.7144 100.182 18.7126H115.837L117.86 15.5646H101.86L101.861 15.5606ZM45.068 12.9256C45.8668 12.9359 46.6596 12.7874 47.4005 12.4889C48.1414 12.1903 48.8157 11.7476 49.3841 11.1864C49.9526 10.6253 50.4039 9.95676 50.712 9.21976C51.0201 8.48275 51.1787 7.6919 51.1787 6.8931C51.1787 6.0943 51.0201 5.30345 50.712 4.56644C50.4039 3.82943 49.9526 3.16094 49.3841 2.59975C48.8157 2.03856 48.1414 1.59585 47.4005 1.2973C46.6596 0.998753 45.8668 0.850315 45.068 0.860599H30.05V18.7096H33.482V4.0086H44.841C45.5986 4.02269 46.3204 4.33352 46.8511 4.87425C47.3819 5.41498 47.6792 6.14241 47.6792 6.9001C47.6792 7.65779 47.3819 8.38522 46.8511 8.92595C46.3204 9.46668 45.5986 9.77751 44.841 9.7916L35.163 9.7776L45.41 18.7096H50.4L43.5 12.9256H45.068ZM8.92601 18.7086C6.55922 18.7086 4.28937 17.7684 2.61579 16.0948C0.942219 14.4212 0.00201416 12.1514 0.00201416 9.7846C0.00201416 7.41781 0.942219 5.14795 2.61579 3.47438C4.28937 1.8008 6.55922 0.860599 8.92601 0.860599H19.3C21.6668 0.860599 23.9367 1.8008 25.6102 3.47438C27.2838 5.14795 28.224 7.41781 28.224 9.7846C28.224 12.1514 27.2838 14.4212 25.6102 16.0948C23.9367 17.7684 21.6668 18.7086 19.3 18.7086H8.92601ZM19.07 15.5606C20.6019 15.5606 22.0711 14.9521 23.1543 13.8688C24.2375 12.7856 24.846 11.3165 24.846 9.7846C24.846 8.25271 24.2375 6.78356 23.1543 5.70035C22.0711 4.61714 20.6019 4.0086 19.07 4.0086H9.15501C7.62312 4.0086 6.15398 4.61714 5.07077 5.70035C3.98756 6.78356 3.37901 8.25271 3.37901 9.7846C3.37901 11.3165 3.98756 12.7856 5.07077 13.8688C6.15398 14.9521 7.62312 15.5606 9.15501 15.5606H19.07ZM84.256 18.7086C81.8892 18.7086 79.6194 17.7684 77.9458 16.0948C76.2722 14.4212 75.332 12.1514 75.332 9.7846C75.332 7.41781 76.2722 5.14795 77.9458 3.47438C79.6194 1.8008 81.8892 0.860599 84.256 0.860599H96.577L94.568 4.0086H84.483C82.9511 4.0086 81.482 4.61714 80.3988 5.70035C79.3156 6.78356 78.707 8.25271 78.707 9.7846C78.707 11.3165 79.3156 12.7856 80.3988 13.8688C81.482 14.9521 82.9511 15.5606 84.483 15.5606H96.862L94.839 18.7086H84.256ZM126.235 15.5606C124.978 15.5615 123.755 15.1517 122.752 14.3935C121.749 13.6354 121.022 12.5704 120.68 11.3606H135.352L137.375 8.2126H120.679C121.023 7.00425 121.752 5.94083 122.754 5.18308C123.756 4.42534 124.978 4.01447 126.234 4.0126H136.305L138.342 0.860599H126.006C123.639 0.860599 121.369 1.8008 119.696 3.47438C118.022 5.14795 117.082 7.41781 117.082 9.7846C117.082 12.1514 118.022 14.4212 119.696 16.0948C121.369 17.7684 123.639 18.7086 126.006 18.7086H136.59L138.613 15.5606H126.235Z" fill="white"/>
</svg>
