<svg width="145" height="50" viewBox="0 0 145 50" fill="none" xmlns="http://www.w3.org/2000/svg">
<g style="mix-blend-mode:luminosity" opacity="0.938">
<path d="M27.7039 0.472656C25.2679 0.472656 26.2959 4.09966 26.4859 5.29066C26.4859 5.34466 26.6759 13.4907 26.7299 15.3627C27.1089 15.2547 27.4609 15.1717 27.8399 15.0907L28.5699 14.9017C28.5969 13.0877 28.7859 5.31966 28.7859 5.26566C28.9489 4.02066 30.2209 0.472656 27.7039 0.472656ZM29.6039 4.39766L29.5759 4.50866C29.5489 4.69766 29.4949 4.85966 29.4679 5.02166C33.6626 5.43107 37.59 7.26647 40.5949 10.2217L38.4829 12.3307L38.5629 11.9537L38.2919 11.8157L37.9399 11.8437L38.0199 11.5997L37.7759 10.7337L37.2629 10.1647L35.6119 9.29866L35.4759 9.45966L35.1759 9.54266C35.7399 10.3533 36.0421 11.3172 36.0419 12.3047V12.6817L36.8549 13.7117L36.4749 13.7917L36.7189 14.1717L35.9889 14.9017L35.6889 14.3607C35.5525 14.7417 35.3709 15.1049 35.1479 15.4427L35.3119 15.5787L33.0639 17.7987C32.9289 17.6637 32.7939 17.5537 32.6589 17.4187C32.4476 17.5208 32.2309 17.6116 32.0099 17.6907L32.1989 17.8237L32.0909 17.9317L31.8219 18.0677L31.7139 18.3397L31.5499 18.1757L31.0889 18.3397L31.2249 18.5557L31.5499 18.4727L31.7659 18.5007L31.7939 18.3927L31.9549 18.3127L32.0109 18.2327L32.3109 18.1497H32.5279L32.6639 18.2577L31.7979 19.1517L31.7419 19.0717L30.8229 19.2357L30.6059 19.4517L30.4139 19.4767L30.9829 18.9357L30.7669 18.8277L30.2259 19.5277L30.3899 19.4997V19.7717L30.5789 19.8517L30.6069 20.1207L30.2819 20.0677L29.9569 20.1207L29.1439 19.7157C29.1439 19.7157 29.0879 21.8827 29.0879 22.9657C30.9879 23.6157 33.0149 24.5347 33.0149 26.9707C33.0212 27.4814 32.8976 27.9854 32.6559 28.4355C32.4142 28.8855 32.0622 29.2668 31.6329 29.5437L31.5799 29.5717L31.5239 29.6247C30.701 30.1002 29.8149 30.4567 28.8919 30.6837L28.8639 32.3907C30.2449 33.0677 31.8959 34.0687 31.7339 36.8847C31.7069 37.5847 31.4339 37.7767 31.2209 37.8307C30.4108 38.0232 29.5865 38.1503 28.7559 38.2107V38.8327C32.3264 38.5869 35.699 37.1025 38.2919 34.6357L40.5119 36.8557C37.0816 40.1595 32.5071 42.0099 27.7445 42.0202C22.9818 42.0304 18.3995 40.1997 14.9549 36.9107L17.1749 34.6907C19.753 37.1016 23.0755 38.5622 26.5949 38.8317V38.2097C23.2473 37.952 20.0914 36.5461 17.6609 34.2297L18.2299 33.6357L19.0429 33.7157L19.4759 33.2547L20.6109 33.3097L20.7749 32.9017L20.7219 32.7407C22.4057 34.023 24.4091 34.8186 26.5139 35.0407V34.4167C24.1888 34.1547 22.0075 33.1593 20.2859 31.5747L22.5059 29.3547C23.0492 29.8458 23.6605 30.2561 24.3209 30.5727C24.3643 30.3654 24.437 30.1654 24.5369 29.9787C23.9732 29.6899 23.4458 29.3351 22.9659 28.9217L25.1859 26.7037C25.5358 26.9817 25.9286 27.2009 26.3489 27.3527V26.6757C26.0877 26.5639 25.8423 26.4183 25.6189 26.2427L26.2409 25.6187C26.0207 25.5589 25.8041 25.4867 25.5919 25.4027L25.1589 25.8387C24.9455 25.6014 24.7637 25.3376 24.6179 25.0537C24.2288 24.8914 23.8569 24.6903 23.5079 24.4537C22.8656 24.0612 22.3376 23.507 21.9766 22.8465C21.6156 22.1859 21.4344 21.4422 21.4509 20.6897C21.4133 19.6591 21.7287 18.6466 22.3449 17.8197L20.1249 15.6017C21.7543 14.0419 23.8238 13.0208 26.0529 12.6767V12.0547C23.6592 12.4056 21.4351 13.4961 19.6919 15.1737L19.3119 14.7937C19.2002 14.9769 19.1 15.167 19.0119 15.3627L19.2559 15.6067C17.2838 17.6961 16.1632 20.4469 16.1139 23.3197H12.9469C12.9978 19.6064 14.4481 16.0491 17.0079 13.3587L18.0079 14.3587H18.1439C18.3408 14.3329 18.5326 14.2776 18.7129 14.1947L17.4389 12.9237C18.1141 12.2706 18.8482 11.6815 19.6319 11.1637C19.6701 11.0046 19.7251 10.8501 19.7959 10.7027C19.9403 10.4736 20.1028 10.2566 20.2819 10.0537C19.095 10.7051 18.0025 11.5156 17.0349 12.4627L14.8149 10.2427C17.8047 7.33737 21.6869 5.52538 25.8339 5.09966C25.8344 5.05284 25.8249 5.00646 25.8059 4.96366C25.7789 4.80166 25.7529 4.66366 25.7259 4.47766C23.2279 4.7311 20.8046 5.47565 18.5952 6.66852C16.3857 7.86138 14.4338 9.47906 12.8515 11.4286C11.2692 13.3781 10.0877 15.6211 9.3749 18.0287C8.6621 20.4362 8.43204 22.9609 8.69794 25.4577C9.18472 30.1498 11.3949 34.4945 14.9007 37.6508C18.4065 40.8071 22.9586 42.5505 27.6759 42.5437C30.1867 42.5427 32.6726 42.0467 34.9914 41.0838C37.3102 40.121 39.4163 38.7102 41.1892 36.9324C42.9621 35.1546 44.367 33.0446 45.3234 30.7231C46.2798 28.4017 46.769 25.9144 46.7629 23.4037C46.7616 18.673 45.0058 14.111 41.8353 10.6001C38.6648 7.08916 34.3049 4.87883 29.5989 4.39666L29.6039 4.39766ZM13.4419 5.15766C11.67 5.60641 10.0622 6.5498 8.8061 7.87776C7.55002 9.20572 6.69748 10.8635 6.34794 12.6577C7.43094 11.3857 9.29994 10.6577 10.3559 9.41066C11.4069 8.13466 11.7589 6.40266 13.4379 5.15366L13.4419 5.15766ZM41.8659 5.15766C43.5439 6.40266 43.8969 8.13466 44.9519 9.40666C46.0069 10.6787 47.8519 11.4067 48.9319 12.6817C48.5841 10.8875 47.7356 9.22846 46.4845 7.8963C45.2333 6.56414 43.6307 5.61328 41.8619 5.15366L41.8659 5.15766ZM30.2529 6.34866L30.0089 6.50965L29.4679 6.45666V6.59266C29.7943 6.61071 30.1195 6.64676 30.4419 6.70066L30.9029 6.67266L31.3639 6.70066L31.5529 6.53666L31.2009 6.37566L30.2529 6.34866ZM29.3869 7.26766C29.3869 7.56766 29.3589 8.24466 29.3589 8.24466C29.3589 8.46166 29.3309 9.24466 29.3309 9.40766C29.5479 9.43466 29.7919 9.46066 30.0079 9.48766C32.0379 9.97466 32.7699 11.1397 32.7699 12.2767C32.7699 14.1447 31.1699 14.8497 29.2229 15.3907L28.5739 15.5517C27.9739 15.6867 27.3569 15.8517 26.7619 16.0127C26.5422 16.0631 26.3255 16.1263 26.1129 16.2017C23.9469 16.8517 22.0769 17.9067 22.0769 20.5867C22.0769 23.2667 24.2169 24.2417 26.3009 24.8867C26.3009 24.1287 26.2729 23.3437 26.2449 22.5867C25.2979 22.1537 24.6769 21.5867 24.6769 20.6387C24.6935 20.2057 24.8462 19.7889 25.1134 19.4478C25.3806 19.1067 25.7485 18.8585 26.1649 18.7387C26.3543 18.6573 26.5706 18.576 26.8139 18.4947C27.3279 18.3057 27.9249 18.1717 28.5209 18.0087L29.1699 17.8447C32.0939 17.1447 35.3949 16.2217 35.3699 12.2967C35.3699 10.3207 33.9359 8.15266 30.4429 7.39666C30.0909 7.34266 29.7429 7.28766 29.3879 7.26066L29.3869 7.26766ZM25.9199 7.56766C25.2573 7.77774 24.6126 8.04058 23.9919 8.35366C22.9862 8.5062 22.0566 8.97973 21.3419 9.70366C21.0169 10.0827 20.7179 10.4887 20.4209 10.8947C20.1209 11.3277 20.0959 12.0337 19.8799 12.3847C19.6949 12.6335 19.608 12.9418 19.6359 13.2507C19.5747 13.5009 19.4547 13.733 19.2859 13.9277C19.1296 14.1139 18.9277 14.2565 18.6999 14.3417C18.4721 14.4268 18.2261 14.4516 17.9859 14.4137C18.3447 14.5249 18.7323 14.4963 19.0709 14.3337C18.9645 14.6242 18.8829 14.9233 18.8269 15.2277C19.0653 14.5791 19.4543 13.9964 19.9619 13.5277C20.5071 13.5631 21.0466 13.3993 21.4799 13.0667C22.5031 12.5421 23.4424 11.868 24.2669 11.0667C24.6922 10.4891 25.2752 10.0467 25.9459 9.79266C25.9459 8.98066 25.9179 8.22466 25.9179 7.57466L25.9199 7.56766ZM6.88794 8.26766C2.31294 11.6787 4.26194 17.1487 4.01794 18.8807C6.37294 13.7637 9.86694 14.8477 11.3559 10.0017C10.4899 11.4637 6.67094 12.0857 4.91094 15.9017C5.82894 13.6297 5.36894 10.1637 6.88494 8.26866L6.88794 8.26766ZM48.4429 8.26766C49.9859 10.1357 49.5259 13.6287 50.4189 15.9027C48.6319 12.0857 44.8189 11.4627 43.9769 9.94666C45.4659 14.8197 48.9569 13.7357 51.3129 18.8257C51.0659 17.1217 53.0149 11.6257 48.4389 8.26866L48.4429 8.26766ZM36.4779 8.96766L36.1529 9.21166L36.5579 9.42766L37.0189 9.75266L37.0749 9.48066L36.8859 9.18066L36.4779 8.96766ZM22.0229 10.2947L22.6999 10.3227L21.9149 11.1607L21.4269 11.2687L22.0229 10.2947ZM14.3599 10.6467L16.5799 12.8647C13.8992 15.6691 12.3809 19.3854 12.3309 23.2647H9.18894C9.23219 18.5543 11.0817 14.0402 14.3559 10.6537L14.3599 10.6467ZM41.0549 10.6997C44.295 14.0844 46.124 18.5763 46.1699 23.2617H43.0309C43.0077 20.9304 42.4501 18.6356 41.4009 16.5537L41.4289 16.4977L41.6449 16.6057L41.7009 16.4447L41.1319 15.4707L40.4549 14.5497L39.6699 13.9007C39.3989 13.5757 39.1299 13.2517 38.8319 12.9267L41.0549 10.6997ZM29.2789 11.9737V12.5957C30.1596 12.7297 31.0219 12.9646 31.8489 13.2957C31.9557 13.1222 32.029 12.9302 32.0649 12.7297C31.1712 12.3603 30.2334 12.1082 29.2749 11.9797L29.2789 11.9737ZM3.17894 12.8117C-1.02106 18.7407 3.42194 22.2867 3.58394 24.4517C4.63994 20.3097 7.15794 20.2837 8.78394 14.8157C8.25587 15.5024 7.62593 16.1043 6.91594 16.6007C5.20349 17.9527 4.03263 19.874 3.61594 22.0157C3.71794 19.3687 2.09194 15.5787 3.17694 12.8177L3.17894 12.8117ZM52.1529 12.8117C53.2359 15.5727 51.6109 19.3627 51.6919 22.0117C51.2643 19.8742 50.0956 17.9564 48.3919 16.5967C47.6883 16.0926 47.0594 15.4917 46.5239 14.8117C48.1479 20.2797 50.6649 20.3067 51.7469 24.4477C51.9089 22.3087 56.3469 18.7627 52.1549 12.8077L52.1529 12.8117ZM18.7969 14.6537C18.6737 14.6898 18.5442 14.6993 18.4169 14.6817L18.7169 15.0067C18.7439 14.8987 18.7699 14.7617 18.7969 14.6537ZM37.0429 14.7337L37.8009 14.7617L37.9899 14.9777L37.9099 15.3027L38.9669 15.9517L39.1829 15.9267L40.5099 17.4697L41.0509 17.2777C41.9162 19.1555 42.3769 21.1943 42.4029 23.2617H39.2639C39.2593 22.4589 39.1585 21.6595 38.9639 20.8807L39.0969 20.6887L39.2889 19.6887L39.1529 18.6337L38.7729 17.4157L37.9069 16.1447L38.1229 16.2527L38.2309 16.1447L37.5309 15.6557L37.4749 15.8197L38.1749 16.8197L38.5799 17.6327L38.8519 18.4457L38.9319 18.9867L39.0679 19.9057L38.7959 19.9337C38.7959 19.9337 38.4959 19.3667 38.3909 19.1237L38.5269 18.9077L38.2549 18.5277V18.1747L38.0659 17.9307L37.8219 17.9587C37.7475 17.796 37.6563 17.6415 37.5499 17.4977L37.7139 17.5807L37.7669 17.5247L37.6869 17.3357L37.9029 17.2277L37.8229 17.1197L37.5229 17.2277L37.6309 16.7397L37.4389 16.6317L37.2779 17.0117C36.932 16.5031 36.5553 16.0162 36.1499 15.5537L37.0429 14.7337ZM19.6629 15.9537L21.8829 18.1737C21.4165 18.6848 21.025 19.2596 20.7199 19.8807H20.5559L20.2309 19.9607H20.1229L19.7979 20.2607L20.2309 20.2077L20.6079 20.1247L20.5279 20.2327L20.2029 20.4487H20.0419L19.5539 20.8287L19.0929 20.7757L18.4159 22.0467L18.5519 22.2907L18.1749 22.7237L18.1189 23.2647H16.7119C16.7368 20.5426 17.7917 17.9307 19.6629 15.9537ZM35.7159 16.0367C36.2298 16.6082 36.6923 17.2239 37.0979 17.8767L36.8259 17.9567L36.8539 18.4447L37.6639 18.9577C37.8758 19.4111 38.0484 19.8818 38.1799 20.3647L38.0439 20.5807L37.7439 20.7967L37.6609 21.2577L37.4449 21.3657L37.2839 21.5817L37.1199 21.5017H36.8199L36.9839 21.2577L37.1169 20.6357L37.3339 20.4997L36.7399 19.9307L36.3069 20.0947L36.1989 20.5277L35.9269 20.8277L35.6269 20.5837L35.5189 20.3147L35.6799 20.2067L35.7629 20.3677L35.8959 20.3147L35.8429 20.0427H35.6539V20.1537L35.5179 20.1817L34.8409 19.3687L34.5969 19.1797L34.6769 19.0997L34.8939 19.0197L34.6769 18.9367C34.6769 18.9367 34.4349 18.9917 34.4079 18.9917L34.5439 19.1807H34.1919C33.9961 18.8466 33.7611 18.5371 33.4919 18.2587L35.7159 16.0367ZM36.0959 16.9307L35.6079 17.1717L35.4469 17.4717L35.3389 17.7407L35.5549 18.0927L35.4719 18.2537L35.1719 18.3617L35.1999 18.6057L35.7409 18.4447L35.9019 18.1197L35.5249 17.6317L35.7139 17.3317L36.2269 17.6837L36.3099 17.6007L36.2019 17.5207L36.0939 17.3037L36.3099 17.1957L36.0959 16.9307ZM28.4919 18.6907C27.9243 18.8247 27.3639 18.9875 26.8129 19.1787C26.8399 20.1537 26.9769 27.3787 26.9769 28.1657C27.2479 28.0847 27.5159 27.9787 27.7599 27.9237C27.9489 27.8697 28.1139 27.8137 28.3039 27.7597C28.2999 27.2467 28.4619 19.9897 28.4919 18.6907ZM33.0659 18.6907C33.2807 18.9319 33.4811 19.1857 33.6659 19.4507L33.5579 19.8007L33.2579 19.5837L33.0139 19.6387L33.1219 19.8547H33.2299L33.0939 20.1797L33.0139 20.0437L32.6609 19.9357L32.9299 19.8827V19.8277L32.6609 19.6387L32.7409 19.0387L33.0659 18.6907ZM26.1359 19.4237C25.8998 19.5335 25.6972 19.7042 25.5488 19.9183C25.4005 20.1323 25.3118 20.382 25.2919 20.6417C25.2919 21.1827 25.6169 21.5357 26.1859 21.8597V21.6157L25.8329 21.2357L26.0219 20.8857L26.1859 20.8307C26.1589 20.2077 26.1579 19.5307 26.1579 19.4237H26.1359ZM0.69194 19.4537C-1.01406 26.6537 3.53394 27.4927 4.72494 30.5247C4.53594 26.1937 7.29794 25.3247 7.08094 20.3717C5.86294 22.7267 3.93894 23.2717 4.15594 28.1157C3.12194 23.8087 0.65994 22.1857 0.69194 19.4537ZM54.6169 19.4537C54.6439 22.2147 52.1819 23.8127 51.1529 28.1437C51.3699 23.2437 49.4729 22.7277 48.2279 20.3727C47.9839 25.3267 50.7739 26.1937 50.5839 30.5257C51.7479 27.5257 56.3219 26.6547 54.6169 19.4537ZM38.2619 20.5337C38.3159 20.6957 38.3439 20.8567 38.3979 21.0197L38.0979 21.9137V22.2137L38.4779 21.5917C38.5589 22.1327 38.6149 22.7017 38.6419 23.2427H35.8799L35.8239 22.9987L36.1489 22.7577L36.2049 22.5937L36.3379 22.4857L36.7179 22.4327L36.7459 22.2687L36.4209 22.1047L36.9899 21.8047L37.5559 21.7247L37.6919 21.4527L38.0169 21.2637L38.1529 20.9947L38.2619 20.5337ZM19.1779 21.9407L19.8519 22.0487L19.9599 22.1567C19.9059 22.5087 19.8789 22.8867 19.8519 23.2387H19.0919L18.7399 22.7777L18.7959 22.1557L19.1779 21.9407ZM29.0309 23.5917C29.0039 24.2147 29.0029 25.1057 28.9749 25.7287C29.7059 25.9997 30.1929 26.3537 30.1929 26.9217C30.1929 27.6217 29.4629 28.0037 28.9219 28.2217C28.7049 28.3027 28.3809 28.4107 28.2729 28.4377C27.8399 28.5727 27.4069 28.7087 26.9729 28.8707C26.752 28.9487 26.5353 29.0385 26.3239 29.1397C25.9216 29.2904 25.5691 29.55 25.306 29.8897C25.0428 30.2293 24.8794 30.6354 24.8339 31.0627C24.8728 31.5262 25.0405 31.9696 25.3181 32.3428C25.5957 32.716 25.9722 33.0041 26.4049 33.1747C26.4049 32.9857 26.3769 31.3337 26.3769 31.3067C26.4085 31.1542 26.4811 31.0132 26.5868 30.8988C26.6925 30.7845 26.8274 30.7011 26.9769 30.6577C27.3894 30.4671 27.814 30.3041 28.2479 30.1697C28.4919 30.0887 28.6809 30.0077 28.8969 29.9537C30.4969 29.4667 32.3359 28.8717 32.3359 26.9227C32.3359 24.9737 30.7659 24.1877 29.0359 23.5917H29.0309ZM12.9499 23.8607H16.0919C16.0929 24.1694 16.1196 24.4774 16.1719 24.7817L15.7919 24.8617L15.7119 25.2417L14.8989 26.2717L14.9269 27.6787L14.1169 27.9477H13.6559C13.233 26.6243 12.9974 25.2483 12.9559 23.8597L12.9499 23.8607ZM39.2639 23.8607H42.4029C42.3063 27.5323 40.8274 31.0322 38.2619 33.6607L37.8289 33.2277L38.0729 32.9587L37.8289 31.7407L37.6649 31.6857L37.7729 31.4687L37.2599 31.3077L37.1519 31.7407L37.0989 32.2817L36.9909 32.3897L36.0419 31.4437C38.0119 29.3982 39.1589 26.6985 39.2639 23.8607ZM42.9999 23.8607H46.1389C46.0353 28.5278 44.1594 32.9805 40.8919 36.3147L38.6989 34.0947C41.3733 31.3492 42.9095 27.6933 42.9989 23.8617L42.9999 23.8607ZM9.18594 23.8887H12.3279C12.3637 25.259 12.5916 26.6176 13.0049 27.9247L12.8129 27.8967L12.6239 27.7077L11.7299 27.6247L12.0019 28.0047L11.1889 27.8407L11.4049 27.6517L11.2159 27.4627L10.6159 27.7067L10.3999 28.0837L10.4829 28.9777L11.1569 30.6017L11.4819 31.1147L11.6739 31.1697L11.1579 30.1957L11.0499 29.7077L11.1579 29.5997L11.0779 29.3307L11.3779 29.3837L11.8659 30.0837L11.9739 30.1367V29.6237L12.1629 29.7317L12.2189 30.0037L12.7049 30.1367L12.9209 29.9757L13.0039 30.0287V30.4087L13.2199 30.6777L13.4889 30.7327L14.0889 31.7067L14.4409 31.8147L14.5489 31.3537C15.1603 32.367 15.8864 33.3066 16.7129 34.1537L14.4929 36.3737C11.1928 33.0452 9.29353 28.5786 9.18594 23.8927V23.8887ZM16.7129 23.8887H17.6589L17.4429 24.6467L17.7149 24.9467L17.4149 25.4047H16.8989L16.8709 25.3797C16.7906 24.8862 16.7369 24.3889 16.7099 23.8897L16.7129 23.8887ZM18.4729 23.8887H19.2029L19.3109 24.1047L19.1499 24.8377L19.0699 24.9707L19.3389 25.5707L19.1499 25.6787L19.0139 25.5147L18.9609 25.5697L19.0939 25.9227L19.3099 26.3277H19.4179L19.4739 25.9507L19.3659 25.8147V25.5707L19.3379 25.0577L19.5019 24.1367L19.3379 23.8927H19.8509C19.9555 25.7589 20.7246 27.5261 22.0189 28.8747L19.7989 31.0677C19.5819 30.8237 19.3389 30.5817 19.1499 30.3377L19.2579 29.5527L18.9329 28.7947L18.8499 27.6037L18.4729 26.8707L18.5529 26.4097L18.0919 25.5437L17.7149 25.3547L17.8759 24.8937L17.7149 24.5407L17.8759 24.1357H18.3089L18.4729 23.8887ZM36.1729 23.9167H38.5819C38.4759 26.5887 37.3981 29.13 35.5509 31.0637L35.2259 30.7387L35.3589 30.3057L35.1179 29.3317L34.6299 30.0617L34.3299 29.7617L34.5459 29.4617L34.8459 28.8617L34.7379 28.6977L34.9269 28.2647L34.8989 27.8597L34.7909 27.4547L34.5219 27.3717L34.4139 27.5907L34.2499 27.5357C34.4922 27.1717 34.7091 26.7915 34.8989 26.3977L35.1709 26.2897L35.3349 26.0737L35.4149 26.1567L35.6039 25.9407L35.4429 25.7487L35.5759 25.7207L35.8199 25.8317H36.3089L36.6089 25.6677L37.3669 25.4517L37.2309 25.2077L37.1779 24.9077L37.5829 25.0967L37.7469 25.0167L37.6639 24.6917L37.1509 24.8807L36.6099 24.7727L36.1729 23.9167ZM20.4729 24.2687L20.9339 24.7547H21.3669L21.9329 25.1347L22.0969 25.0547L22.5019 25.3547L22.3129 25.4907L22.7739 25.7907L22.7459 25.4657L22.9899 25.0607L23.2589 25.3297L23.5309 25.7097L23.0429 25.8457L23.2589 26.2787L23.5839 26.0867L23.5309 25.9537L23.7749 25.7897L23.9079 25.1127C24.0945 25.5177 24.3416 25.892 24.6409 26.2227L22.4209 28.4427C21.3391 27.2993 20.6558 25.837 20.4729 24.2737V24.2687ZM6.85594 25.5117C6.69394 28.0837 4.95594 29.3297 6.12294 34.0117C4.09294 30.0317 0.953936 28.5447 0.0339355 25.8377C0.0919355 33.2847 6.07394 34.3937 7.59194 36.4537C6.31694 31.7137 8.56494 30.0607 6.85994 25.5127L6.85594 25.5117ZM48.4359 25.5117C46.7299 30.0597 48.9779 31.7117 47.7059 36.4497C49.2219 34.3927 55.2059 33.2837 55.2579 25.8387C54.3379 28.5727 51.1989 30.0327 49.1689 34.0127C50.3329 29.3297 48.5989 28.0817 48.4359 25.5117ZM28.9989 26.4327C28.9989 26.5677 28.9709 27.1907 28.9709 27.5147C29.3229 27.3257 29.5709 27.1637 29.5709 26.8927C29.5709 26.7307 29.3549 26.5677 29.0579 26.4317L28.9989 26.4327ZM32.7349 29.4107L33.3039 29.8157L33.7369 30.0317L33.9529 30.2477L33.8449 30.3557L33.1679 30.1667L32.9509 30.2467L32.5739 29.9467L32.2219 29.8107C32.4109 29.6757 32.5729 29.5407 32.7349 29.4057V29.4107ZM28.2689 30.7897C28.2689 30.7897 28.0239 30.8717 27.8889 30.9257C27.8079 30.9527 27.5659 31.0607 27.4029 31.1147C27.2399 31.1687 27.0509 31.2517 27.0509 31.3057C27.0509 31.3057 27.2119 39.6417 27.2119 39.8057C27.2119 41.5117 28.0809 41.5387 28.0809 39.8057C28.0809 39.6977 28.2699 30.7907 28.2699 30.7907L28.2689 30.7897ZM8.23594 31.1147C8.66894 33.0907 7.42294 35.9877 9.39894 38.7227C7.37194 36.4537 3.04094 35.8537 1.28094 32.3907C3.47394 40.8637 9.21394 39.1317 11.7859 40.9727C9.67494 37.9127 11.4069 35.8807 8.23894 31.1167L8.23594 31.1147ZM47.0289 31.1147C43.8619 35.8797 45.5939 37.9147 43.4819 40.9707C46.0819 39.1297 51.7939 40.8627 53.9869 32.3887C52.2269 35.8537 47.9239 36.4487 45.8939 38.7227C47.8699 35.9887 46.6229 33.1227 47.0289 31.1147ZM11.9189 31.5507L12.4849 32.4417L12.5129 32.3087L12.2439 31.6847L11.9189 31.5507ZM35.5769 31.9007L37.7969 34.1207C36.9755 34.9183 36.057 35.6094 35.0629 36.1777L35.3629 35.5557L35.2549 35.2867L35.6879 34.9067V34.6907L35.3109 34.4467L35.6109 33.8247L36.0719 33.2247L35.6109 32.7387H35.2589L35.0429 32.3857C35.2329 32.2237 35.4219 32.0597 35.5839 31.8967L35.5769 31.9007ZM16.7899 32.7137L17.4899 33.1187L17.6259 33.2267L17.1099 33.7427C16.8702 33.5029 16.6442 33.2499 16.4329 32.9847L16.7899 32.7137ZM28.8379 33.0137L28.8099 34.2597C29.3467 34.4851 29.828 34.8246 30.2205 35.2545C30.6129 35.6845 30.9072 36.1946 31.0829 36.7497C31.1687 35.9671 30.9956 35.1781 30.5901 34.5033C30.1846 33.8285 29.5692 33.3053 28.8379 33.0137ZM11.2699 36.1537C12.3259 37.7777 11.2429 39.8077 14.5699 42.9477C11.3209 41.0257 6.80194 41.8367 4.63694 39.2647C8.37294 46.4117 14.9219 43.4897 16.7629 44.3827C15.0059 41.9467 16.1969 40.5667 11.2699 36.1537ZM44.0289 36.1537C39.0749 40.5667 40.2919 41.9467 38.5059 44.3827C40.3739 43.4897 46.9229 46.4117 50.6319 39.2647C48.4929 41.8647 43.9749 41.0257 40.7259 42.9477C44.0559 39.7807 42.9729 37.7537 44.0289 36.1537ZM22.7219 43.9227C20.893 43.9883 19.0774 44.261 17.3099 44.7357C14.3319 45.5207 11.7579 46.1417 9.50994 45.0047C11.6489 46.9047 14.1669 47.6047 17.7949 47.1977C20.7949 46.8727 23.2369 45.3587 26.0799 45.3857H26.1879C24.3987 46.2802 22.8059 47.5228 21.5029 49.0407L22.8849 49.2297C23.3852 48.3259 24.0663 47.5349 24.8858 46.9061C25.7052 46.2772 26.6455 45.824 27.6479 45.5747C28.6507 45.8242 29.5913 46.2775 30.4112 46.9063C31.2312 47.5351 31.9129 48.326 32.4139 49.2297L33.7959 49.0407C32.493 47.5228 30.9002 46.2802 29.1109 45.3857H29.2189C32.0609 45.3587 34.4989 46.8737 37.5039 47.1977C41.1319 47.5767 43.6229 46.8977 45.7889 45.0047C43.5419 46.1417 40.9679 45.5207 37.9889 44.7357C36.2215 44.261 34.4059 43.9883 32.5769 43.9227C30.8957 43.888 29.2232 44.1724 27.6479 44.7607C26.0737 44.1724 24.4022 43.888 22.7219 43.9227ZM89.7989 12.6227V24.5537H91.7859V12.6207L89.7989 12.6227ZM97.8509 12.6227V17.5537H97.8289C97.6498 17.1474 97.3519 16.8048 96.9744 16.571C96.5969 16.3372 96.1575 16.2231 95.7139 16.2437C93.9469 16.2437 92.8769 17.7927 92.8769 20.4767C92.8769 22.7457 93.7259 24.6867 95.7549 24.6867C96.2193 24.7104 96.6794 24.5882 97.0708 24.3371C97.4621 24.086 97.765 23.7187 97.9369 23.2867H97.9809C97.9805 23.7095 98.0018 24.132 98.0449 24.5527H99.9019C99.8579 24.0947 99.8349 23.6147 99.8349 23.1527V12.6207L97.8509 12.6227ZM129.528 12.6227V24.5537H131.492V12.6207L129.528 12.6227ZM137.993 12.6227V24.5537H139.955V19.7787C139.955 18.7317 140.326 17.8577 141.355 17.8577C142.162 17.8577 142.49 18.3827 142.49 19.6477V24.5537H144.452V19.2767C144.452 17.6187 143.886 16.2427 142.032 16.2427C141.617 16.2303 141.208 16.3343 140.849 16.5429C140.49 16.7514 140.197 17.0562 140.003 17.4227H139.959V12.6227H137.993ZM64.4059 13.4527L66.6739 24.5797H69.0739L70.8199 15.4597H70.8419L72.5209 24.5797H74.9629L77.2559 13.4537H75.4019L73.7649 22.0237H73.7419L72.0849 13.4537H69.5919L67.9129 22.0277H67.8939L66.3259 13.4537L64.4059 13.4527ZM105.706 13.4527V24.5537H107.757V19.6477H111.052V24.5767H113.081V13.4537H111.048V17.9697H107.753V13.4537L105.706 13.4527ZM135.726 14.0637L133.764 14.6747H133.742V16.3747H132.432V17.8147H133.742V22.2857C133.742 24.0087 134.57 24.6857 136.032 24.6857C136.489 24.6877 136.942 24.599 137.364 24.4247V23.0247C137.132 23.1387 136.878 23.1986 136.62 23.1997C136.053 23.1997 135.726 22.9367 135.726 22.0647V17.7917H137.364V16.3537H135.722L135.726 14.0637ZM80.1339 16.2227C78.4759 16.2227 76.5339 17.0957 76.5149 20.4327C76.5149 23.8577 78.4539 24.6627 80.1339 24.6627C81.8139 24.6627 83.7339 23.8797 83.7339 20.4327C83.7339 17.0957 81.8139 16.2227 80.1339 16.2227ZM124.575 16.2227C123.674 16.2266 122.785 16.4344 121.975 16.8307L122.108 18.4017C122.753 17.905 123.539 17.625 124.353 17.6017C124.562 17.5839 124.772 17.6127 124.968 17.686C125.165 17.7593 125.342 17.8753 125.488 18.0256C125.634 18.1759 125.745 18.3568 125.813 18.5551C125.881 18.7535 125.904 18.9644 125.88 19.1727V19.4777H125.492C122.983 19.4777 121.173 20.0447 121.173 22.2697C121.165 22.5907 121.224 22.9099 121.345 23.2075C121.465 23.5051 121.646 23.7747 121.875 23.9997C122.104 24.2246 122.377 24.4002 122.677 24.5154C122.977 24.6307 123.297 24.6832 123.618 24.6697C124.075 24.6795 124.526 24.5701 124.928 24.3521C125.33 24.1341 125.667 23.8151 125.908 23.4267H125.93C125.912 23.8009 125.948 24.1758 126.038 24.5397H127.828C127.759 24.0626 127.723 23.5815 127.72 23.0997V19.5147C127.72 17.4637 127.131 16.2227 124.578 16.2227H124.575ZM88.6219 16.2427C88.1485 16.2603 87.6924 16.4249 87.3168 16.7136C86.9412 17.0022 86.6648 17.4007 86.5259 17.8537H86.5039C86.5039 17.3537 86.4619 16.8487 86.4399 16.3467H84.6499C84.6939 16.8047 84.7169 17.2467 84.7169 17.7007L84.7389 24.5727H86.7009V20.0727C86.7009 18.5457 87.5949 18.0467 88.4009 18.0467C88.586 18.054 88.7696 18.0829 88.9479 18.1327V16.2867C88.8403 16.261 88.7305 16.2459 88.6199 16.2417L88.6219 16.2427ZM117.443 16.2427C115.349 16.2427 114.06 18.1427 114.06 20.5867C114.06 22.7867 115.217 24.6867 117.86 24.6867C118.702 24.6881 119.534 24.5102 120.302 24.1647L120.235 22.6357C119.609 23.0867 118.847 23.3101 118.076 23.2687C116.549 23.2687 115.983 22.4197 115.983 21.0237H120.712V20.6297C120.712 17.2697 119.212 16.2447 117.442 16.2447L117.443 16.2427ZM117.418 17.5747C118.312 17.5747 118.795 18.3167 118.795 19.7567H115.958C115.958 18.6657 116.371 17.5747 117.418 17.5747ZM80.1339 17.6387C81.4209 17.6387 81.7049 19.0787 81.7049 20.4527C81.7049 21.8267 81.3999 23.2897 80.1339 23.2897C78.8679 23.2897 78.5629 21.8277 78.5629 20.4537C78.5629 19.0797 78.8469 17.6387 80.1339 17.6387ZM96.3009 17.6827C97.3919 17.6827 97.8279 18.8407 97.8279 20.4337C97.8279 21.9607 97.4359 23.2227 96.2789 23.2227C95.1449 23.2227 94.8379 22.2867 94.8159 20.3887C94.8159 18.7527 95.2099 17.6827 96.3009 17.6827ZM125.685 20.5417H125.885V21.0187C125.885 22.4807 125.451 23.3557 124.272 23.3557H124.117C123.802 23.3346 123.508 23.1895 123.3 22.9522C123.092 22.7148 122.987 22.4046 123.007 22.0897C123.007 20.8897 124.007 20.5407 125.688 20.5407L125.685 20.5417ZM102.954 27.1087V29.0487H105.005V27.1087H102.954ZM126.276 27.1087V29.0487H128.305V27.1087H126.276ZM68.9199 27.5227C66.6069 27.5227 64.4899 29.2447 64.4899 33.2377C64.4899 37.2307 66.6069 38.9557 68.9199 38.9557C71.2329 38.9557 73.3499 37.2307 73.3499 33.2377C73.3499 29.2447 71.2339 27.5217 68.9209 27.5217L68.9199 27.5227ZM123.439 28.3077L121.477 28.9187L121.452 30.5977H120.146V32.0377H121.453V36.5377C121.453 38.2377 122.284 38.9137 123.746 38.9137C124.204 38.937 124.66 38.8474 125.075 38.6527V37.2537C124.848 37.3778 124.592 37.4383 124.334 37.4287C123.767 37.4287 123.44 37.1657 123.44 36.2937V32.0377H125.075V30.5977H123.44L123.439 28.3077ZM68.9199 29.0927C70.2069 29.0927 71.2539 30.1607 71.2539 33.2367C71.2539 36.3127 70.2069 37.4057 68.9199 37.4057C67.6329 37.4057 66.5919 36.2917 66.5919 33.2367C66.5919 30.1817 67.6329 29.0927 68.9199 29.0927ZM90.2329 30.4667C89.3298 30.4613 88.4385 30.6714 87.6329 31.0797L87.7629 32.6477C88.4085 32.1483 89.1952 31.8655 90.0109 31.8397C90.2198 31.8219 90.43 31.8507 90.6263 31.924C90.8227 31.9973 91.0003 32.1133 91.1464 32.2636C91.2925 32.4139 91.4034 32.5948 91.4711 32.7931C91.5388 32.9915 91.5616 33.2024 91.5379 33.4107V33.7157H91.1469C88.6379 33.7157 86.8259 34.2827 86.8259 36.5077C86.8184 36.8285 86.8768 37.1474 86.9974 37.4448C87.118 37.7421 87.2983 38.0116 87.5272 38.2365C87.756 38.4614 88.0286 38.6371 88.328 38.7525C88.6274 38.8679 88.9473 38.9207 89.2679 38.9077C89.7252 38.9177 90.1772 38.8083 90.5793 38.5903C90.9814 38.3723 91.3197 38.0533 91.5609 37.6647H91.5919C91.5738 38.0389 91.6101 38.4139 91.6999 38.7777H93.4869C93.4184 38.3007 93.3823 37.8195 93.3789 37.3377V33.7617C93.3789 31.7107 92.7899 30.4667 90.2369 30.4667H90.2329ZM116.195 30.4667C115.292 30.4613 114.401 30.6714 113.595 31.0797L113.725 32.6477C114.37 32.1483 115.157 31.8655 115.973 31.8397C116.182 31.8219 116.392 31.8507 116.588 31.924C116.785 31.9973 116.962 32.1133 117.108 32.2636C117.254 32.4139 117.365 32.5948 117.433 32.7931C117.501 32.9915 117.524 33.2024 117.5 33.4107V33.7157H117.112C114.603 33.7157 112.793 34.2827 112.793 36.5077C112.786 36.8286 112.844 37.1477 112.965 37.4451C113.086 37.7426 113.267 38.0121 113.496 38.237C113.725 38.4619 113.998 38.6375 114.297 38.7528C114.597 38.8682 114.917 38.9209 115.238 38.9077C115.695 38.9175 116.146 38.8081 116.548 38.5901C116.95 38.3721 117.287 38.0531 117.528 37.6647H117.55C117.532 38.0389 117.568 38.4139 117.658 38.7777H119.445C119.377 38.3006 119.34 37.8195 119.337 37.3377V33.7617C119.337 31.7107 118.748 30.4667 116.195 30.4667ZM132.995 30.4667C131.337 30.4667 129.395 31.3607 129.376 34.6767C129.376 38.1237 131.315 38.9097 132.995 38.9097C134.675 38.9097 136.595 38.1237 136.595 34.6767C136.592 31.3397 134.673 30.4667 132.992 30.4667H132.995ZM78.0849 30.4887C77.6122 30.51 77.1576 30.6766 76.783 30.9658C76.4084 31.255 76.1322 31.6527 75.9919 32.1047H75.9699C75.9699 31.6047 75.9249 31.0997 75.9029 30.5977H74.1139C74.1579 31.0557 74.1779 31.4977 74.1779 31.9517V38.8237H76.1429V34.3307C76.1429 32.8037 77.0369 32.2987 77.8429 32.2987C78.0345 32.3053 78.2246 32.3352 78.4089 32.3877V30.5337C78.3013 30.5084 78.1914 30.4936 78.0809 30.4897L78.0849 30.4887ZM81.8849 30.4887C79.7249 30.4887 78.9179 32.4747 78.9179 34.7437C78.9179 38.0597 80.6419 38.8237 81.7769 38.8237C82.2365 38.8376 82.6894 38.7111 83.0751 38.4609C83.4609 38.2108 83.7612 37.8489 83.9359 37.4237H83.9579V38.2087C83.9579 39.4957 83.6499 40.7817 81.7959 40.7817C80.9428 40.7581 80.1099 40.5172 79.3759 40.0817L79.2899 41.8277C80.1909 42.1574 81.1426 42.3266 82.1019 42.3277C85.1129 42.3277 85.9019 40.5197 85.9019 37.9457V31.9077C85.9019 31.4717 85.9469 31.0557 85.9689 30.6197H84.1729C84.1509 31.0337 84.1059 31.4487 84.1059 31.8857H84.0389C83.8574 31.4653 83.5555 31.108 83.1713 30.8589C82.7871 30.6098 82.3378 30.4799 81.8799 30.4857L81.8849 30.4887ZM99.0319 30.4887C98.5746 30.4835 98.1255 30.6104 97.7384 30.8541C97.3514 31.0978 97.0429 31.448 96.8499 31.8627H96.8279C96.8279 31.4487 96.7859 31.0117 96.7639 30.5967H94.9029C94.9469 31.0547 94.9699 31.4967 94.9699 31.9507V38.7787H96.9349V34.0027C96.9349 32.9557 97.3059 32.0817 98.3349 32.0817C99.1419 32.0817 99.4669 32.6037 99.4669 33.8687V38.8007H101.454V33.5197C101.454 31.8617 100.886 30.4887 99.0319 30.4887ZM142.232 30.4887C141.775 30.4836 141.326 30.6105 140.94 30.8542C140.553 31.098 140.245 31.4481 140.053 31.8627H140.031C140.031 31.4487 139.986 31.0117 139.964 30.5967H138.1C138.144 31.0547 138.167 31.4967 138.167 31.9507L138.186 38.7787H140.152V34.0027C140.152 32.9557 140.523 32.0817 141.552 32.0817C142.359 32.0817 142.687 32.6037 142.687 33.8687V38.8007H144.649V33.5197C144.649 31.8617 144.08 30.4887 142.226 30.4887H142.232ZM103.009 30.5967V38.7967H104.971V30.5967H103.009ZM106.631 30.5967V32.1037H110.031L106.517 37.1037H106.492V38.8037H112.092V37.2947H108.539L111.986 32.2797V30.5977L106.631 30.5967ZM126.331 30.5967L126.353 38.7967H128.318V30.5967H126.331ZM132.992 31.8847C134.279 31.8847 134.563 33.3247 134.563 34.6987C134.563 36.0727 134.257 37.5357 132.992 37.5357C131.727 37.5357 131.424 36.0737 131.424 34.6987C131.424 33.3237 131.706 31.8847 132.992 31.8847ZM82.3819 31.9937C83.3199 31.9717 83.9749 32.8877 83.9749 34.6107C83.9749 36.4647 83.4749 37.3617 82.2289 37.3617C81.5529 37.3617 80.9409 36.5557 80.9409 34.6357C80.9409 32.9777 81.3349 32.0157 82.3819 31.9937ZM91.3469 34.7857H91.5219L91.5439 35.2687C91.5439 36.7307 91.1069 37.5997 89.9289 37.5997H89.7759C89.4613 37.5773 89.168 37.4319 88.9597 37.195C88.7514 36.958 88.6448 36.6486 88.6629 36.3337C88.6629 35.1337 89.6629 34.7857 91.3469 34.7857ZM117.309 34.7857H117.509V35.2687C117.509 36.7307 117.072 37.5997 115.894 37.5997H115.741C115.426 37.5773 115.133 37.4319 114.925 37.195C114.716 36.958 114.61 36.6486 114.628 36.3337C114.628 35.1337 115.628 34.7847 117.312 34.7847L117.309 34.7857Z" fill="black"/>
</g>
</svg>
