<svg width="20" height="20" viewBox="0 0 20 20" fill="none" xmlns="http://www.w3.org/2000/svg">
<path d="M16.6667 5.83317H3.33333C2.87333 5.83317 2.5 5.45984 2.5 4.99984C2.5 4.53984 2.87333 4.1665 3.33333 4.1665H16.6667C17.1275 4.1665 17.5 4.53984 17.5 4.99984C17.5 5.45984 17.1275 5.83317 16.6667 5.83317Z" fill="white"/>
<path d="M10 10.8332H3.33333C2.87333 10.8332 2.5 10.4598 2.5 9.99984C2.5 9.53984 2.87333 9.1665 3.33333 9.1665H10C10.4608 9.1665 10.8333 9.53984 10.8333 9.99984C10.8333 10.4598 10.4608 10.8332 10 10.8332Z" fill="white"/>
<path d="M3.33333 15.8332H16.6667C17.1275 15.8332 17.5 15.4607 17.5 14.9998C17.5 14.539 17.1275 14.1665 16.6667 14.1665H3.33333C2.87333 14.1665 2.5 14.539 2.5 14.9998C2.5 15.4607 2.87333 15.8332 3.33333 15.8332Z" fill="white"/>
</svg>
