<svg width="111" height="20" viewBox="0 0 111 20" fill="none" xmlns="http://www.w3.org/2000/svg">
<path d="M5.829 6.81931H11.374L9.615 9.83731H5.829V19.4973H2.178V9.83731L0 9.86731L0.8 6.83731L2.175 6.81831V5.45831C2.17456 5.21101 2.18892 4.9639 2.218 4.71831C2.24592 4.48403 2.28935 4.25185 2.348 4.02331C2.40486 3.80211 2.47738 3.58523 2.565 3.37431C2.65032 3.16731 2.75059 2.96678 2.865 2.77431C3.09511 2.38665 3.3793 2.03377 3.709 1.72631C3.87639 1.57048 4.05412 1.42615 4.241 1.29431C4.43312 1.15773 4.6335 1.03315 4.841 0.921313C5.05731 0.806306 5.28115 0.706077 5.511 0.621313C5.75148 0.534506 5.99733 0.463357 6.247 0.408313C6.50428 0.350443 6.76472 0.307703 7.027 0.280313C7.30505 0.251251 7.58444 0.236898 7.864 0.237313C8.08267 0.237313 8.29467 0.246313 8.5 0.264313C8.70533 0.282313 8.90167 0.308647 9.089 0.343313C9.27224 0.377111 9.45351 0.420843 9.632 0.474313C9.80216 0.524909 9.96913 0.585685 10.132 0.656313C10.3052 0.738251 10.4723 0.832492 10.632 0.938313C10.809 1.05231 10.991 1.18231 11.169 1.31831C11.347 1.45431 11.521 1.59731 11.682 1.73631C11.843 1.87531 11.99 2.01031 12.115 2.13631L9.305 3.82131C9.2658 3.78542 9.22438 3.75202 9.181 3.72131C9.15199 3.70009 9.12081 3.68199 9.088 3.66731C9.058 3.65431 9.026 3.64331 8.988 3.62831C8.95 3.61331 8.9 3.59231 8.84 3.56531C8.77706 3.53915 8.71261 3.51677 8.647 3.49831C8.57558 3.47818 8.50314 3.46182 8.43 3.44931C8.354 3.43598 8.27367 3.42598 8.189 3.41931C8.10433 3.41265 8.016 3.40931 7.924 3.40931C7.76511 3.40876 7.60638 3.41946 7.449 3.44131C7.30764 3.46224 7.16842 3.4957 7.033 3.54131C6.90837 3.5819 6.78837 3.63554 6.675 3.70131C6.56676 3.76464 6.4661 3.84013 6.375 3.92631C6.28458 4.01139 6.20438 4.1067 6.136 4.21031C6.06657 4.3159 6.00921 4.42894 5.965 4.54731C5.91896 4.67372 5.88547 4.80435 5.865 4.93731C5.84166 5.08415 5.83029 5.23264 5.831 5.38131L5.829 6.81931Z" fill="#0F162A"/>
<path d="M17.796 19.7602C17.4642 19.7606 17.1327 19.7423 16.803 19.7052C16.4859 19.6695 16.1714 19.6144 15.861 19.5402C15.5581 19.4678 15.2601 19.3759 14.969 19.2652C14.6806 19.1554 14.3996 19.0268 14.128 18.8802C13.8605 18.7364 13.602 18.5765 13.354 18.4012C13.1123 18.2302 12.8818 18.0438 12.664 17.8432C12.448 17.6447 12.2453 17.4322 12.057 17.2072C11.8675 16.9804 11.6928 16.7415 11.534 16.4922C11.3753 16.2436 11.2346 15.984 11.113 15.7152C10.9931 15.4492 10.8928 15.1748 10.813 14.8942C10.7319 14.6119 10.6711 14.3242 10.631 14.0332C10.5515 13.4302 10.5515 12.8193 10.631 12.2162C10.6698 11.9257 10.7292 11.6383 10.809 11.3562C10.8888 11.0782 10.9891 10.8064 11.109 10.5432C11.2286 10.2785 11.3673 10.0228 11.524 9.77821C11.8361 9.28547 12.212 8.83623 12.642 8.44221C12.8607 8.24332 13.0918 8.05861 13.334 7.88921C13.5842 7.71475 13.8447 7.55547 14.114 7.41221C14.3872 7.26636 14.6695 7.1381 14.959 7.02821C15.2499 6.91779 15.5475 6.82594 15.85 6.75321C16.1584 6.67922 16.4709 6.62412 16.786 6.58821C17.113 6.55107 17.4419 6.53271 17.771 6.53321C18.1051 6.53295 18.439 6.55132 18.771 6.58821C19.0917 6.62379 19.41 6.67889 19.724 6.75321C20.0296 6.82541 20.3302 6.91727 20.624 7.02821C20.9132 7.13753 21.1948 7.26581 21.467 7.41221C21.734 7.55597 21.9921 7.71559 22.24 7.89021C22.4808 8.05978 22.7106 8.24448 22.928 8.44321C23.3575 8.83618 23.7337 9.28365 24.047 9.77421C24.2037 10.0188 24.3424 10.2745 24.462 10.5392C24.5819 10.8025 24.6822 11.0742 24.762 11.3522C24.8418 11.6343 24.9013 11.9217 24.94 12.2122C25.019 12.8153 25.019 13.4261 24.94 14.0292C24.9012 14.3214 24.8417 14.6104 24.762 14.8942C24.682 15.1748 24.5817 15.4492 24.462 15.7152C24.3423 15.9837 24.2036 16.2434 24.047 16.4922C23.8904 16.7416 23.7177 16.9804 23.53 17.2072C23.3443 17.4322 23.1438 17.6447 22.93 17.8432C22.713 18.0439 22.4832 18.2303 22.242 18.4012C21.9944 18.5766 21.7363 18.7366 21.469 18.8802C21.1974 19.0268 20.9165 19.1554 20.628 19.2652C20.3369 19.3759 20.0389 19.4678 19.736 19.5402C19.4257 19.6144 19.1111 19.6695 18.794 19.7052C18.4643 19.7423 18.1328 19.7606 17.801 19.7602M17.773 16.5602C17.9394 16.5604 18.1056 16.5514 18.271 16.5332C18.4298 16.5158 18.5875 16.4888 18.743 16.4522C18.8931 16.4169 19.0408 16.3718 19.185 16.3172C19.3265 16.2633 19.4641 16.1998 19.597 16.1272C19.727 16.0558 19.8519 15.9756 19.971 15.8872C20.0875 15.8019 20.1978 15.7083 20.301 15.6072C20.4033 15.5065 20.4982 15.3986 20.585 15.2842C20.6731 15.1679 20.753 15.0456 20.824 14.9182C20.896 14.7893 20.9592 14.6557 21.013 14.5182C21.0675 14.3784 21.1126 14.235 21.148 14.0892C21.1845 13.9387 21.2116 13.7861 21.229 13.6322C21.2473 13.4712 21.2563 13.3093 21.256 13.1472C21.2563 12.9855 21.2469 12.8239 21.228 12.6632C21.2099 12.5102 21.1818 12.3586 21.144 12.2092C21.1073 12.0645 21.0605 11.9225 21.004 11.7842C20.9471 11.6462 20.8802 11.5126 20.804 11.3842C20.7307 11.259 20.6492 11.1387 20.56 11.0242C20.472 10.9115 20.3765 10.8049 20.274 10.7052C20.1722 10.6074 20.0639 10.5166 19.95 10.4332C19.8319 10.3463 19.7083 10.2671 19.58 10.1962C19.4483 10.1227 19.3117 10.0586 19.171 10.0042C19.0282 9.94954 18.8818 9.90444 18.733 9.86921C18.5808 9.83289 18.4265 9.80584 18.271 9.78821C18.105 9.76996 17.938 9.76095 17.771 9.76121C17.608 9.76097 17.445 9.76998 17.283 9.78821C17.1281 9.80566 16.9745 9.83271 16.823 9.86921C16.6762 9.90464 16.5319 9.94974 16.391 10.0042C16.2536 10.0581 16.1199 10.1213 15.991 10.1932C15.8627 10.2641 15.7391 10.3433 15.621 10.4302C15.5055 10.5154 15.3959 10.6082 15.293 10.7082C15.1905 10.8079 15.095 10.9145 15.007 11.0272C14.9178 11.1417 14.8363 11.2619 14.763 11.3872C14.6868 11.5155 14.6199 11.6492 14.563 11.7872C14.5069 11.9255 14.4604 12.0675 14.424 12.2122C14.3862 12.3616 14.3581 12.5132 14.34 12.6662C14.3028 12.9881 14.3028 13.3133 14.34 13.6352C14.3581 13.7892 14.3862 13.9418 14.424 14.0922C14.4605 14.2382 14.507 14.3815 14.563 14.5212C14.6202 14.6591 14.6871 14.7927 14.763 14.9212C14.8361 15.0485 14.9176 15.1708 15.007 15.2872C15.183 15.5146 15.3896 15.7165 15.621 15.8872C15.8589 16.0634 16.1192 16.207 16.395 16.3142C16.5359 16.3687 16.6802 16.4138 16.827 16.4492C16.9785 16.4857 17.1321 16.5128 17.287 16.5302C17.449 16.5484 17.612 16.5575 17.775 16.5572" fill="#0F162A"/>
<path d="M39.695 19.4973H35.395L32.587 15.4193L29.704 19.4973H25.581L30.492 13.0193L25.857 6.81934H30.181L32.789 10.5383L35.343 6.81934H39.197L34.881 12.9563L39.695 19.4973Z" fill="#0F162A"/>
<path d="M47.5591 19.7602C47.2231 19.7607 46.8872 19.7427 46.5531 19.7062C46.2322 19.6713 45.9136 19.6172 45.5991 19.5442C45.2937 19.4729 44.9931 19.3824 44.6991 19.2732C44.4083 19.1653 44.1247 19.0387 43.8501 18.8942C43.581 18.7531 43.3208 18.5954 43.0711 18.4222C42.8287 18.2538 42.5975 18.0698 42.3791 17.8712C42.1653 17.6748 41.9648 17.4644 41.7791 17.2412C41.5889 17.0171 41.4138 16.7806 41.2551 16.5332C41.0984 16.2865 40.9597 16.0289 40.8401 15.7622C40.7203 15.4976 40.62 15.2245 40.5401 14.9452C40.4604 14.6621 40.4009 14.3737 40.3621 14.0822C40.3237 13.7808 40.3053 13.4771 40.3071 13.1732C40.3066 12.8656 40.3263 12.5583 40.3661 12.2532C40.4048 11.959 40.4643 11.668 40.5441 11.3822C40.6238 11.1012 40.7241 10.8265 40.8441 10.5602C40.9635 10.2931 41.1022 10.0351 41.2591 9.78821C41.5714 9.29268 41.9488 8.84131 42.3811 8.44621C42.6022 8.24623 42.836 8.06084 43.0811 7.89121C43.3319 7.71589 43.593 7.55593 43.8631 7.41221C44.1393 7.26617 44.4246 7.13791 44.7171 7.02821C45.0111 6.91771 45.3117 6.82587 45.6171 6.75321C45.9295 6.67914 46.2461 6.62404 46.5651 6.58821C46.8952 6.55121 47.227 6.53285 47.5591 6.53321C47.8258 6.53321 48.0855 6.54454 48.3381 6.56721C48.5908 6.58987 48.8401 6.62321 49.0861 6.66721C49.3293 6.71363 49.5699 6.77238 49.8071 6.84321C50.2686 6.97917 50.715 7.16213 51.1391 7.38921C51.3454 7.49996 51.5456 7.62146 51.7391 7.75321C51.9318 7.88426 52.1174 8.02546 52.2951 8.17621C52.4738 8.32783 52.6443 8.48872 52.8061 8.65821L50.4601 10.8902C50.2846 10.7076 50.0894 10.5449 49.8781 10.4052C49.7717 10.335 49.6615 10.2705 49.5481 10.2122C49.4323 10.1524 49.3135 10.0987 49.1921 10.0512C49.0661 10.0023 48.9375 9.95994 48.8071 9.92421C48.6778 9.88821 48.5445 9.85821 48.4071 9.83421C48.2698 9.81021 48.1305 9.79221 47.9891 9.78021C47.8465 9.76821 47.7008 9.76221 47.5521 9.76221C47.3888 9.76197 47.2255 9.77099 47.0631 9.78921C46.9073 9.80668 46.7527 9.83373 46.6001 9.87021C46.4517 9.90568 46.3057 9.95077 46.1631 10.0052C46.0224 10.0594 45.8854 10.1229 45.7531 10.1952C45.623 10.266 45.4974 10.3448 45.3771 10.4312C45.2595 10.5158 45.1476 10.608 45.0421 10.7072C44.9376 10.8056 44.8397 10.9108 44.7491 11.0222C44.6578 11.1346 44.574 11.2529 44.4981 11.3762C44.4217 11.5013 44.3548 11.632 44.2981 11.7672C44.2398 11.9055 44.1917 12.0479 44.1541 12.1932C44.1152 12.3444 44.0865 12.4981 44.0681 12.6532C44.0486 12.8171 44.0389 12.9821 44.0391 13.1472C44.039 13.3093 44.0486 13.4713 44.0681 13.6322C44.0867 13.7863 44.1154 13.9389 44.1541 14.0892C44.195 14.2353 44.2461 14.3783 44.3071 14.5172C44.3642 14.6551 44.4311 14.7888 44.5071 14.9172C44.5826 15.0446 44.6665 15.1669 44.7581 15.2832C44.9391 15.5109 45.1504 15.7128 45.3861 15.8832C45.6287 16.0592 45.8933 16.2028 46.1731 16.3102C46.3157 16.3646 46.4617 16.4097 46.6101 16.4452C46.7615 16.4839 46.9151 16.5133 47.0701 16.5332C47.2325 16.5514 47.3958 16.5604 47.5591 16.5602C47.7125 16.5602 47.8621 16.5539 48.0081 16.5412C48.1541 16.5285 48.2961 16.5095 48.4341 16.4842C48.569 16.4596 48.7025 16.4282 48.8341 16.3902C48.9634 16.353 49.0906 16.309 49.2151 16.2582C49.3367 16.2086 49.4556 16.1525 49.5711 16.0902C49.6847 16.0297 49.7949 15.9629 49.9011 15.8902C50.0054 15.8168 50.1056 15.7377 50.2011 15.6532C50.2987 15.5677 50.3915 15.4769 50.4791 15.3812L52.8501 17.6122C52.6781 17.7869 52.4998 17.9515 52.3151 18.1062C52.1312 18.2595 51.9396 18.4033 51.7411 18.5372C51.5436 18.6706 51.3393 18.7937 51.1291 18.9062C50.9178 19.0194 50.7008 19.1219 50.4791 19.2132C50.2551 19.3053 50.0265 19.3858 49.7941 19.4542C49.5582 19.5236 49.3189 19.581 49.0771 19.6262C48.8331 19.6722 48.5838 19.7055 48.3291 19.7262C48.0745 19.7469 47.8148 19.7582 47.5501 19.7602" fill="#0F162A"/>
<path d="M60.949 19.7602C60.6173 19.7606 60.2857 19.7423 59.956 19.7052C59.639 19.6695 59.3244 19.6144 59.014 19.5402C58.7111 19.4678 58.4132 19.3759 58.122 19.2652C57.8336 19.1554 57.5527 19.0268 57.281 18.8802C57.0135 18.7364 56.7551 18.5765 56.507 18.4012C56.2653 18.2302 56.0349 18.0438 55.817 17.8432C55.601 17.6447 55.3983 17.4322 55.21 17.2072C55.0205 16.9804 54.8458 16.7415 54.687 16.4922C54.5283 16.2436 54.3876 15.984 54.266 15.7152C54.1461 15.4492 54.0458 15.1748 53.966 14.8942C53.8849 14.6119 53.8241 14.3242 53.784 14.0332C53.7045 13.4302 53.7045 12.8193 53.784 12.2162C53.8228 11.9257 53.8823 11.6383 53.962 11.3562C54.0418 11.0782 54.1421 10.8064 54.262 10.5432C54.3816 10.2785 54.5203 10.0228 54.677 9.77821C54.9891 9.28548 55.365 8.83624 55.795 8.44221C56.0137 8.24332 56.2448 8.05861 56.487 7.88921C56.7372 7.71475 56.9977 7.55546 57.267 7.41221C57.5402 7.26636 57.8225 7.1381 58.112 7.02821C58.4029 6.91779 58.7005 6.82594 59.003 6.75321C59.3114 6.67922 59.624 6.62412 59.939 6.58821C60.266 6.55107 60.5949 6.53271 60.924 6.53321C61.2581 6.53295 61.592 6.55132 61.924 6.58821C62.2448 6.62379 62.563 6.67889 62.877 6.75321C63.1826 6.82541 63.4833 6.91727 63.777 7.02821C64.0662 7.13753 64.3478 7.26581 64.62 7.41221C64.887 7.55597 65.1451 7.71559 65.393 7.89021C65.6339 8.05978 65.8636 8.24448 66.081 8.44321C66.5105 8.83618 66.8867 9.28365 67.2 9.77421C67.3567 10.0188 67.4954 10.2745 67.615 10.5392C67.7349 10.8025 67.8352 11.0742 67.915 11.3522C67.9948 11.6343 68.0543 11.9217 68.093 12.2122C68.1721 12.8153 68.1721 13.4261 68.093 14.0292C68.0542 14.3214 67.9947 14.6104 67.915 14.8942C67.835 15.1748 67.7348 15.4492 67.615 15.7152C67.4953 15.9837 67.3566 16.2434 67.2 16.4922C67.0434 16.7416 66.8707 16.9804 66.683 17.2072C66.4973 17.4322 66.2968 17.6447 66.083 17.8432C65.866 18.0439 65.6362 18.2303 65.395 18.4012C65.1474 18.5766 64.8893 18.7366 64.622 18.8802C64.3504 19.0268 64.0695 19.1554 63.781 19.2652C63.4899 19.3759 63.1919 19.4678 62.889 19.5402C62.5787 19.6144 62.2641 19.6695 61.947 19.7052C61.6173 19.7423 61.2858 19.7606 60.954 19.7602M60.926 16.5602C61.0924 16.5604 61.2586 16.5514 61.424 16.5332C61.5829 16.5158 61.7405 16.4888 61.896 16.4522C62.0461 16.4169 62.1938 16.3718 62.338 16.3172C62.4795 16.2633 62.6171 16.1998 62.75 16.1272C62.88 16.0558 63.005 15.9756 63.124 15.8872C63.2406 15.8019 63.3508 15.7083 63.454 15.6072C63.5563 15.5065 63.6513 15.3986 63.738 15.2842C63.8261 15.1679 63.906 15.0456 63.977 14.9182C64.049 14.7893 64.1122 14.6557 64.166 14.5182C64.2205 14.3784 64.2656 14.235 64.301 14.0892C64.3375 13.9387 64.3646 13.7861 64.382 13.6322C64.4003 13.4712 64.4093 13.3093 64.409 13.1472C64.4093 12.9855 64.3999 12.8239 64.381 12.6632C64.3629 12.5102 64.3349 12.3586 64.297 12.2092C64.2603 12.0645 64.2135 11.9225 64.157 11.7842C64.1001 11.6462 64.0332 11.5126 63.957 11.3842C63.8837 11.259 63.8022 11.1387 63.713 11.0242C63.6251 10.9115 63.5295 10.8049 63.427 10.7052C63.3252 10.6074 63.2169 10.5166 63.103 10.4332C62.985 10.3463 62.8614 10.2671 62.733 10.1962C62.6013 10.1227 62.4647 10.0586 62.324 10.0042C62.1812 9.94954 62.0349 9.90444 61.886 9.86921C61.7338 9.83289 61.5795 9.80584 61.424 9.78821C61.258 9.76996 61.0911 9.76095 60.924 9.76121C60.761 9.76095 60.598 9.76997 60.436 9.78821C60.2812 9.80566 60.1275 9.83272 59.976 9.86921C59.8292 9.90464 59.6849 9.94974 59.544 10.0042C59.4066 10.0581 59.273 10.1213 59.144 10.1932C59.0157 10.2641 58.8921 10.3433 58.774 10.4302C58.6585 10.5154 58.549 10.6082 58.446 10.7082C58.3435 10.8079 58.248 10.9145 58.16 11.0272C58.0708 11.1417 57.9893 11.2619 57.916 11.3872C57.8398 11.5155 57.7729 11.6492 57.716 11.7872C57.6599 11.9255 57.6134 12.0675 57.577 12.2122C57.5392 12.3616 57.5111 12.5132 57.493 12.6662C57.4558 12.9881 57.4558 13.3133 57.493 13.6352C57.5112 13.7892 57.5392 13.9418 57.577 14.0922C57.6135 14.2382 57.66 14.3815 57.716 14.5212C57.7733 14.6591 57.8401 14.7927 57.916 14.9212C57.9891 15.0485 58.0706 15.1708 58.16 15.2872C58.336 15.5146 58.5426 15.7165 58.774 15.8872C59.0119 16.0634 59.2722 16.207 59.548 16.3142C59.6889 16.3687 59.8332 16.4138 59.98 16.4492C60.1315 16.4857 60.2852 16.5128 60.44 16.5302C60.602 16.5485 60.765 16.5575 60.928 16.5572" fill="#0F162A"/>
<path d="M80.001 0.527344V7.91734C79.9137 7.83668 79.8223 7.75934 79.727 7.68534C79.6317 7.61134 79.5333 7.54101 79.432 7.47434C79.3307 7.40768 79.226 7.34368 79.118 7.28234C79.01 7.22101 78.8997 7.16268 78.787 7.10734C78.5919 7.01586 78.3916 6.93605 78.187 6.86834C77.9791 6.79965 77.7674 6.74289 77.553 6.69834C77.332 6.65307 77.1086 6.61969 76.884 6.59834C76.6547 6.57568 76.4213 6.56434 76.184 6.56434C75.8759 6.56375 75.568 6.58145 75.262 6.61734C74.9698 6.65193 74.6802 6.70571 74.395 6.77834C74.118 6.8488 73.8463 6.93869 73.582 7.04734C73.3202 7.15521 73.0665 7.28188 72.823 7.42634C72.5815 7.56934 72.3493 7.72767 72.128 7.90034C71.6898 8.24079 71.2987 8.63793 70.965 9.08134C70.7958 9.30726 70.6411 9.54374 70.502 9.78934C70.361 10.038 70.237 10.2959 70.131 10.5613C70.0243 10.8288 69.9358 11.103 69.866 11.3823C69.7945 11.6686 69.7414 11.9592 69.707 12.2523C69.6712 12.5577 69.6535 12.8649 69.654 13.1723C69.6536 13.4768 69.6713 13.781 69.707 14.0833C69.7414 14.3745 69.7945 14.6631 69.866 14.9473C69.9359 15.2253 70.0245 15.4983 70.131 15.7643C70.2372 16.0291 70.3611 16.2863 70.502 16.5343C70.6413 16.7804 70.7963 17.0172 70.966 17.2433C71.1327 17.4653 71.3141 17.6758 71.509 17.8733C71.7036 18.0705 71.9115 18.2543 72.131 18.4233C72.3537 18.5952 72.5876 18.7522 72.831 18.8933C73.0761 19.0377 73.3311 19.1647 73.594 19.2733C73.8584 19.3827 74.13 19.4736 74.407 19.5453C74.6904 19.6186 74.9784 19.673 75.269 19.7083C75.5713 19.7449 75.8755 19.7629 76.18 19.7623C76.4158 19.7624 76.6515 19.7501 76.886 19.7253C77.1122 19.7017 77.3369 19.6653 77.559 19.6163C77.775 19.5686 77.9881 19.5082 78.197 19.4353C78.4019 19.3631 78.6023 19.2786 78.797 19.1823C78.9197 19.1217 79.039 19.0573 79.155 18.9893C79.271 18.9213 79.3827 18.8497 79.49 18.7743C79.598 18.6997 79.702 18.6213 79.802 18.5393C79.902 18.4573 79.9983 18.3727 80.091 18.2853L83.54 19.4983L83.653 2.29934L80.001 0.527344ZM78.593 16.1493C78.4643 16.2223 78.3306 16.2861 78.193 16.3403C78.0519 16.3957 77.9073 16.4415 77.76 16.4773C77.6066 16.5148 77.4509 16.5425 77.294 16.5603C77.128 16.5792 76.9611 16.5885 76.794 16.5883C76.6346 16.5884 76.4753 16.5791 76.317 16.5603C76.1647 16.5423 76.0138 16.5145 75.865 16.4773C75.7198 16.4411 75.5772 16.3954 75.438 16.3403C75.3006 16.2856 75.167 16.2218 75.038 16.1493C74.9092 16.0784 74.7852 15.9989 74.667 15.9113C74.5518 15.8263 74.4428 15.733 74.341 15.6323C74.2399 15.532 74.1463 15.4244 74.061 15.3103C73.8871 15.0739 73.7443 14.8161 73.636 14.5433C73.5812 14.4022 73.5361 14.2576 73.501 14.1103C73.4647 13.9568 73.438 13.8012 73.421 13.6443C73.4028 13.4783 73.3938 13.3114 73.394 13.1443C73.3939 12.9836 73.4029 12.823 73.421 12.6633C73.4381 12.5108 73.4649 12.3595 73.501 12.2103C73.5363 12.0655 73.5814 11.9231 73.636 11.7843C73.7408 11.5146 73.881 11.26 74.053 11.0273C74.1386 10.9141 74.2318 10.8068 74.332 10.7063C74.4346 10.6061 74.5438 10.5129 74.659 10.4273C74.775 10.339 74.8966 10.2581 75.023 10.1853C75.1515 10.1112 75.2852 10.0463 75.423 9.99134C75.5629 9.93354 75.7065 9.88543 75.853 9.84734C76.0064 9.80979 76.1621 9.78207 76.319 9.76434C76.6463 9.72807 76.9767 9.72807 77.304 9.76434C77.4582 9.78144 77.6112 9.80815 77.762 9.84434C77.9079 9.8796 78.0512 9.9247 78.191 9.97934C78.3287 10.0331 78.4623 10.0966 78.591 10.1693C78.7173 10.2407 78.8386 10.3205 78.954 10.4083C79.0671 10.4945 79.174 10.5884 79.274 10.6893C79.3743 10.7905 79.4675 10.8984 79.553 11.0123C79.6401 11.1284 79.7196 11.25 79.791 11.3763C79.8634 11.5052 79.9269 11.6388 79.981 11.7763C80.0355 11.9165 80.0806 12.0602 80.116 12.2063C80.1521 12.3565 80.1788 12.5088 80.196 12.6623C80.2141 12.8224 80.2231 12.9833 80.223 13.1443C80.2232 13.3114 80.2142 13.4783 80.196 13.6443C80.179 13.8012 80.1523 13.9568 80.116 14.1103C80.0809 14.2576 80.0358 14.4022 79.981 14.5433C79.9274 14.6811 79.8639 14.8148 79.791 14.9433C79.72 15.0709 79.6405 15.1935 79.553 15.3103C79.3822 15.5376 79.1802 15.7395 78.953 15.9103C78.8374 15.9976 78.7162 16.0772 78.59 16.1483" fill="#0F162A"/>
<path d="M98.871 9.61523C98.731 9.37991 98.5757 9.15408 98.406 8.93923C98.2377 8.72719 98.0553 8.52674 97.86 8.33923C97.6633 8.14985 97.4541 7.97379 97.234 7.81223C97.0082 7.64669 96.772 7.49572 96.527 7.36023C96.2779 7.22229 96.0196 7.10168 95.754 6.99923C95.4823 6.89569 95.204 6.81018 94.921 6.74323C94.6278 6.67341 94.3306 6.62165 94.031 6.58823C93.3946 6.51746 92.7524 6.51746 92.116 6.58823C91.8065 6.62462 91.4996 6.68005 91.197 6.75423C90.8991 6.82656 90.6061 6.91809 90.32 7.02823C90.0349 7.13801 89.7573 7.26628 89.489 7.41223C89.2243 7.55607 88.9685 7.71569 88.723 7.89023C88.4841 8.05981 88.2563 8.24453 88.041 8.44323C87.6167 8.8371 87.2468 9.28571 86.941 9.77723C86.6303 10.2664 86.3943 10.7993 86.241 11.3582C86.1623 11.6431 86.1038 11.9331 86.066 12.2262C85.9869 12.8414 85.9869 13.4641 86.066 14.0792C86.1052 14.3768 86.1657 14.6713 86.247 14.9602C86.407 15.5264 86.6503 16.0657 86.969 16.5602C87.1274 16.8073 87.3022 17.0434 87.492 17.2672C87.6807 17.4894 87.8841 17.6985 88.101 17.8932C88.3204 18.0903 88.5526 18.2727 88.796 18.4392C89.0464 18.6103 89.3072 18.7656 89.577 18.9042C89.8528 19.0478 90.1377 19.1731 90.43 19.2792C90.7281 19.3874 91.0327 19.4765 91.342 19.5462C91.6623 19.6185 91.9865 19.6719 92.313 19.7062C92.6555 19.7421 92.9996 19.7598 93.344 19.7592C93.6187 19.7592 93.8883 19.7479 94.153 19.7252C94.4177 19.7026 94.6773 19.6692 94.932 19.6252C95.1867 19.5792 95.4367 19.5216 95.682 19.4522C95.9273 19.3829 96.1677 19.3019 96.403 19.2092C96.6339 19.1197 96.8596 19.0172 97.079 18.9022C97.2937 18.7897 97.5017 18.6648 97.702 18.5282C97.9004 18.3931 98.0907 18.2465 98.272 18.0892C98.4537 17.9325 98.6263 17.7656 98.789 17.5892L95.819 16.2242C95.698 16.2912 95.603 16.3422 95.519 16.3832C95.435 16.4242 95.365 16.4562 95.291 16.4832C95.217 16.5102 95.142 16.5422 95.051 16.5762C94.96 16.6102 94.851 16.6512 94.714 16.7052C94.5972 16.7532 94.4773 16.7929 94.355 16.8242C94.2566 16.8483 94.1562 16.8634 94.055 16.8692C93.955 16.8752 93.855 16.8752 93.734 16.8692C93.613 16.8632 93.475 16.8632 93.303 16.8632C93.118 16.8635 92.9331 16.8542 92.749 16.8352C92.5741 16.8172 92.4005 16.7888 92.229 16.7502C92.0644 16.7133 91.9023 16.6655 91.744 16.6072C91.5901 16.5513 91.4404 16.4845 91.296 16.4072C91.154 16.333 91.0176 16.2485 90.888 16.1542C90.7619 16.0634 90.6429 15.9631 90.532 15.8542C90.4212 15.7441 90.3189 15.6258 90.226 15.5002C90.131 15.3731 90.0451 15.2395 89.969 15.1002C89.939 15.0429 89.9103 14.9852 89.883 14.9272C89.8557 14.8692 89.83 14.8099 89.806 14.7492C89.782 14.6892 89.7593 14.6279 89.738 14.5652C89.7167 14.5026 89.697 14.4386 89.679 14.3732L99.522 14.3532C99.5407 14.2792 99.558 14.2072 99.574 14.1372C99.59 14.0672 99.6043 14.0006 99.617 13.9372C99.6303 13.8706 99.642 13.8062 99.652 13.7442C99.662 13.6822 99.6703 13.6216 99.677 13.5622C99.6837 13.5029 99.6897 13.4439 99.695 13.3852C99.7003 13.3266 99.7047 13.2679 99.708 13.2092C99.7113 13.1506 99.714 13.0922 99.716 13.0342C99.718 12.9762 99.718 12.9186 99.716 12.8612C99.7164 12.5668 99.6987 12.2725 99.663 11.9802C99.6286 11.6993 99.5754 11.4211 99.504 11.1472C99.3643 10.6111 99.1502 10.0971 98.868 9.62023M89.682 11.8042C89.6987 11.7456 89.7167 11.6876 89.736 11.6302C89.7553 11.5729 89.7757 11.5166 89.797 11.4612C89.819 11.4059 89.842 11.3512 89.866 11.2972C89.89 11.2432 89.916 11.1896 89.944 11.1362C90.0148 11.0005 90.095 10.8698 90.184 10.7452C90.3579 10.5022 90.5665 10.2859 90.803 10.1032C91.046 9.91375 91.3155 9.76111 91.603 9.65023C91.752 9.59238 91.9046 9.54461 92.06 9.50723C92.2224 9.46833 92.387 9.43961 92.553 9.42123C92.893 9.38509 93.236 9.38509 93.576 9.42123C93.7294 9.4371 93.8817 9.46248 94.032 9.49723C94.1735 9.5301 94.3125 9.57287 94.448 9.62523C94.5784 9.67581 94.7048 9.73632 94.826 9.80623C94.9425 9.87282 95.0538 9.94803 95.159 10.0312C95.2631 10.1136 95.3607 10.2039 95.451 10.3012C95.5424 10.3995 95.6263 10.5044 95.702 10.6152C95.7797 10.7292 95.8492 10.8485 95.91 10.9722C95.94 11.0329 95.9687 11.0956 95.996 11.1602C96.0233 11.2249 96.049 11.2916 96.073 11.3602C96.097 11.4269 96.1197 11.4972 96.141 11.5712C96.1623 11.6452 96.182 11.7192 96.2 11.7932L89.682 11.8042Z" fill="#0F162A"/>
<path d="M104.418 19.5051L104.539 12.9961L107.482 16.0961L110.927 19.6261L104.418 19.5051Z" fill="#2058E1"/>
</svg>
