<svg width="64" height="64" viewBox="0 0 64 64" fill="none" xmlns="http://www.w3.org/2000/svg">
<rect width="64" height="64" rx="20" fill="#1D2939"/>
<g clip-path="url(#clip0_71_16996)">
<path d="M44.0532 33.7067L42.8265 32.5067L32.4932 42.8267L33.7332 44.0667C34.1339 44.5256 34.6221 44.8999 35.1693 45.1678C35.7165 45.4356 36.3116 45.5917 36.9198 45.6267C37.5281 45.5917 38.1232 45.4356 38.6704 45.1678C39.2175 44.8999 39.7058 44.5256 40.1065 44.0667L44.0532 40.12C46.1732 37.9867 46.1732 35.84 44.0532 33.7067Z" fill="white"/>
<path d="M30.2536 19.9077C29.8769 19.4191 29.3932 19.0234 28.8395 18.7512C28.2859 18.4789 27.6772 18.3373 27.0603 18.3373C26.4433 18.3373 25.8346 18.4789 25.281 18.7512C24.7273 19.0234 24.2436 19.4191 23.8669 19.9077L19.9069 23.853C19.4211 24.2316 19.028 24.7159 18.7576 25.2693C18.4872 25.8227 18.3467 26.4305 18.3467 27.0464C18.3467 27.6623 18.4872 28.2701 18.7576 28.8234C19.028 29.3768 19.4211 29.8612 19.9069 30.2397L21.1336 31.4664L31.4669 21.137L30.2536 19.9077Z" fill="white"/>
<path opacity="0.4" d="M45.08 21.2533C42.7736 26.3902 39.5421 31.059 35.5466 35.0267C35.2765 33.3458 34.474 31.796 33.257 30.6054C32.0401 29.4149 30.473 28.6465 28.7866 28.4133C32.776 24.3934 37.4664 21.1364 42.6266 18.8027C42.9682 18.6679 43.3415 18.6353 43.7013 18.7086C44.0611 18.782 44.3918 18.9583 44.6533 19.216C44.9221 19.4726 45.1068 19.8047 45.183 20.1684C45.2591 20.5322 45.2232 20.9104 45.08 21.2533Z" fill="white"/>
<path d="M35.5465 35.0267C34.9198 35.6472 34.2611 36.2347 33.5732 36.7867L30.9465 38.8933C30.6233 39.1314 30.2744 39.3326 29.9065 39.4933C29.9065 39.24 29.8799 38.9867 29.8532 38.72C29.6925 37.5583 29.1481 36.4836 28.3065 35.6667C27.4597 34.8098 26.3535 34.2567 25.1599 34.0933C24.8942 34.0647 24.6268 34.0558 24.3599 34.0667C24.5057 33.6558 24.7273 33.2758 25.0132 32.9467L27.0932 30.32C27.6232 29.6547 28.1885 29.0182 28.7865 28.4133C30.4729 28.6465 32.04 29.4149 33.2569 30.6054C34.4739 31.796 35.2764 33.3458 35.5465 35.0267Z" fill="white"/>
<path opacity="0.4" d="M29.9065 39.4933C29.9104 40.2222 29.7685 40.9444 29.4891 41.6176C29.2098 42.2908 28.7986 42.9014 28.2798 43.4133C27.4091 44.2874 26.2631 44.8338 25.0358 44.96L21.7692 45.32C21.3474 45.3643 20.9211 45.3136 20.5215 45.1716C20.1218 45.0296 19.7591 44.8 19.4599 44.4994C19.1606 44.1989 18.9325 43.8352 18.7922 43.435C18.6519 43.0348 18.603 42.6082 18.6492 42.1867L19.0092 38.9067C19.1537 37.5842 19.7781 36.3606 20.7642 35.4677C21.7503 34.5747 23.0296 34.0743 24.3598 34.0613C24.6268 34.0504 24.8942 34.0594 25.1598 34.088C26.3534 34.2514 27.4596 34.8045 28.3065 35.6613C29.148 36.4782 29.6924 37.5529 29.8532 38.7147C29.8798 38.9867 29.9065 39.24 29.9065 39.4933Z" fill="white"/>
</g>
<defs>
<clipPath id="clip0_71_16996">
<rect width="32" height="32" fill="white" transform="translate(16 16)"/>
</clipPath>
</defs>
</svg>
