<svg width="64" height="64" viewBox="0 0 64 64" fill="none" xmlns="http://www.w3.org/2000/svg">
<rect width="64" height="64" rx="20" fill="#1D2939"/>
<g clip-path="url(#clip0_71_16790)">
<path opacity="0.4" d="M27.5598 34.6667H21.3332C20.6266 34.6688 19.9495 34.9504 19.4499 35.45C18.9502 35.9497 18.6686 36.6267 18.6665 37.3333V45.3333H27.5598V34.6667Z" fill="white"/>
<path d="M33.7735 29.3333H30.2135C29.5069 29.3354 28.8299 29.6171 28.3303 30.1167C27.8306 30.6164 27.549 31.2934 27.5469 32V45.3333H36.4402V32C36.4402 31.2928 36.1593 30.6145 35.6592 30.1144C35.1591 29.6143 34.4808 29.3333 33.7735 29.3333Z" fill="white"/>
<path opacity="0.4" d="M42.6666 38.6667H36.4399V45.3333H45.3333V41.3333C45.3312 40.6267 45.0495 39.9497 44.5499 39.45C44.0503 38.9504 43.3732 38.6688 42.6666 38.6667Z" fill="white"/>
<path d="M36.0134 22.4666C36.2023 22.3064 36.3433 22.0971 36.4209 21.8619C36.4985 21.6266 36.5098 21.3745 36.4534 21.1333C36.3618 20.9026 36.2068 20.7025 36.0062 20.5562C35.8056 20.4099 35.5678 20.3234 35.3201 20.3066L34.0401 20.0933C33.9606 20.0648 33.8911 20.0139 33.8401 19.9466L33.1334 18.5333C33.0512 18.2964 32.8973 18.091 32.693 17.9456C32.4887 17.8003 32.2441 17.7222 31.9934 17.7222C31.7427 17.7222 31.4981 17.8003 31.2938 17.9456C31.0895 18.091 30.9356 18.2964 30.8534 18.5333L30.1467 19.9466C30.0957 20.0139 30.0262 20.0648 29.9467 20.0933L28.6667 20.3066C28.4197 20.3255 28.1828 20.4129 27.9826 20.5589C27.7824 20.7049 27.6268 20.9038 27.5334 21.1333C27.477 21.3745 27.4883 21.6266 27.5659 21.8619C27.6435 22.0971 27.7845 22.3064 27.9734 22.4666L28.9601 23.4666C29.0123 23.5408 29.0402 23.6293 29.0401 23.72L28.7601 24.9466C28.6587 25.2023 28.639 25.483 28.7034 25.7504C28.7679 26.0177 28.9134 26.2586 29.1201 26.44C29.3554 26.5826 29.6291 26.6489 29.9036 26.6298C30.1782 26.6107 30.4401 26.5071 30.6534 26.3333L31.8534 25.6266C31.8974 25.6068 31.9451 25.5966 31.9934 25.5966C32.0417 25.5966 32.0894 25.6068 32.1334 25.6266L33.3334 26.3333C33.6068 26.5147 33.9254 26.6163 34.2534 26.6266C34.4676 26.6261 34.6767 26.561 34.8534 26.44C35.0801 26.28 35.4267 25.8666 35.2134 24.9466L34.9334 23.72C34.9291 23.6745 34.934 23.6287 34.9477 23.5852C34.9615 23.5417 34.9838 23.5014 35.0134 23.4666L36.0134 22.4666Z" fill="white"/>
</g>
<defs>
<clipPath id="clip0_71_16790">
<rect width="32" height="32" fill="white" transform="translate(16 16)"/>
</clipPath>
</defs>
</svg>
